<?xml version="1.0" encoding="UTF-8"?>
<svg id="Layer_2" xmlns="http://www.w3.org/2000/svg" viewBox="0 0 110.89 110.87">
  <defs>
    <style>
      .cls-1 {
        fill: #21409a;
        stroke: #000;
        stroke-miterlimit: 10;
        stroke-width: .25px;
      }
    </style>
  </defs>
  <g id="Layer_1-2" data-name="Layer_1">
    <g>
      <g>
        <path class="cls-1" d="M57.61,110.7c.87-.07,2.73-.21,3.55-.25-.81.09-2.68.21-3.55.25h0Z"/>
        <path class="cls-1" d="M51.97,110.64c1.32-.06,3.08.02,4.4.06.74.02.51.07-1.06.03-.97-.03-2.39-.04-3.33-.09h-.01Z"/>
        <path class="cls-1" d="M45.55,109.84c.66-.02,3.49.38,4.35.5,2.8.5-3.89-.31-4.34-.49h-.01Z"/>
        <path class="cls-1" d="M40.13,108.56c1.12.17,3.37.73,4.5,1.06.19.07.04.07-.53-.05-.88-.19-3.16-.74-3.97-1.01h0Z"/>
        <path class="cls-1" d="M35.28,106.93c.54.16,2.29.78,2.96,1.01,1.07.37,1.05.4-.18-.02-.78-.27-2.1-.72-2.79-.99h0Z"/>
        <path class="cls-1" d="M32,105.52c.58.26.57.26,0,0h0Z"/>
        <path class="cls-1" d="M25.74,101.52q.14.25,0,0h0Z"/>
      </g>
      <g>
        <path class="cls-1" d="M69.36,108.95c1.22-.53,3.71-1.34,4.93-1.54-.6.39-3.97,1.38-4.92,1.55h0Z"/>
        <path class="cls-1" d="M69.39,108.93c-.1.21-5.63,1.48-4.69.74.67-.47,3.75-1.14,4.65-1.06.24,0,.36.11.2.23l-.16.1Z"/>
        <path class="cls-1" d="M64.29,109.72c-1.04.59-3.42.86-4.63.62-.36-.43,1.3-.83,2.23-.97,1.11-.14,1.8-.2,2.39-.01.16.05.18.19.13.24l-.11.12Z"/>
        <path class="cls-1" d="M59.19,110.06c-1.12.66-3.32.63-4.65.46-.41-.07-.88-.11-.93-.38.39-.86,6.16-1.06,5.72-.2l-.14.12Z"/>
        <path class="cls-1" d="M52.54,109.9c-.24.64-6.89.31-5.17-.68,1.3-.45,3.57-.23,4.8.17.17.06.49.25.43.4l-.07.11Z"/>
        <path class="cls-1" d="M45.95,109.09c-.54.42-1.89.19-2.74.06-.95-.23-1.97-.26-2.29-.8.41-.81,5.1-.11,5.1.63l-.06.11Z"/>
        <path class="cls-1" d="M39.92,107.89c-.97.3-3-.34-4.01-.74-.38-.17-.69-.31-.71-.54.43-.62,4.78.46,4.81,1.19l-.08.08Z"/>
        <path class="cls-1" d="M34.21,106.15c-.41.15-1.66-.36-2.28-.61-.72-.33-1.71-.66-2.09-1.17,0-.11.04-.09.11-.11.6-.11,4.08,1.2,4.3,1.82l-.04.07Z"/>
        <path class="cls-1" d="M29.08,103.97c-1.08-.4-2.86-1.45-3.78-2.21.37-.06,3.38,1.7,3.79,2.18l-.02.04Z"/>
        <path class="cls-1" d="M21.87,99.38c.68.46,1.62,1.14,2.27,1.61.25.22-2.04-1.41-2.25-1.59l-.02-.02Z"/>
      </g>
      <g>
        <path class="cls-1" d="M82.03,103.98c.63-.46,3.04-1.89,3.4-2.07-.32.27-2.73,1.72-3.37,2.06h-.03Z"/>
        <path class="cls-1" d="M82.26,103.8c-.92.71-3.15,1.78-4.11,2.08-.31.1-.55.17-.38-.05.96-.94,3.14-2.02,4.2-2.38.72-.24.73-.03.49.18l-.2.17Z"/>
        <path class="cls-1" d="M78.02,105.51c-.85.88-2.95,1.71-4.2,1.83-.44.07-.9,0-.68-.38.82-1.23,3.87-2.36,4.94-2.07.25.08.15.35.09.42l-.15.19Z"/>
        <path class="cls-1" d="M72.73,106.74c-.82.92-2.68,1.69-3.98,1.65-.5,0-.96-.06-.79-.53.94-1.38,3.25-2.21,4.76-1.87.28.09.29.32.18.53l-.17.23Z"/>
        <path class="cls-1" d="M67.23,107.49c-.79,1.14-2.45,1.54-3.76,1.45-.49-.06-.89-.1-.99-.5.23-1.16,2.05-1.84,3.16-1.91.76-.02,1.67.08,1.67.74l-.07.22Z"/>
        <path class="cls-1" d="M61.75,108.02c-.97,1.24-3.58,1.37-5.08,1.03-.58-.13-1.23-.38-1.18-.88.5-1.62,6.7-1.99,6.36-.35l-.1.2Z"/>
        <path class="cls-1" d="M54.26,107.92c-.61,1.31-5.77,1.33-5.78-.33.58-1.67,5.92-1.41,5.85.12l-.07.21Z"/>
        <path class="cls-1" d="M47.3,107.3c-.63,1.29-5.56.81-5.47-.78.54-1.49,5.46-.96,5.53.57l-.06.21Z"/>
        <path class="cls-1" d="M40.74,106.26c-.82,1-5.04.27-5.14-1.2.32-1.52,5.38-.4,5.22,1.01l-.08.19Z"/>
        <path class="cls-1" d="M34.52,104.69c-.77.84-4.72-.33-4.75-1.58.43-1.27,4.92.23,4.81,1.42l-.06.16Z"/>
        <path class="cls-1" d="M28.8,102.67c-.58.69-4.11-.97-4.27-2,.42-1.02,4.28,1,4.3,1.85l-.03.14Z"/>
        <path class="cls-1" d="M23.72,100.24c-.1.33-1.39-.5-1.33-.46-.77-.51-1.96-1.24-2.38-2,.01-.31.38-.09.63,0,.1.04.55.27.38.18.93.55,2.23,1.29,2.69,2.16v.11Z"/>
        <path class="cls-1" d="M19.49,97.42c-.7-.48-2.81-2.53-2.94-2.74.98.79,2.17,1.9,2.91,2.68l.04.06Z"/>
      </g>
      <g>
        <path class="cls-1" d="M89.27,99.24c1.08-1.05,2.76-2.46,3.89-3.32-.75.85-2.84,2.53-3.87,3.32h-.01Z"/>
        <path class="cls-1" d="M89.97,98.61c-.27.51-4.61,3.81-3.96,2.43.57-.78,1.2-1.28,1.97-1.9.48-.44,3.19-2.16,2.21-.79l-.22.25Z"/>
        <path class="cls-1" d="M86.36,100.51c-.58,1.06-3.2,2.62-4.08,2.57-.44.04-.66-.08-.58-.45.29-.84.92-1.34,1.63-1.91,1.17-.96,3.92-1.88,3.19-.48l-.16.27Z"/>
        <path class="cls-1" d="M81.59,102.13c-.76,1.22-3.3,2.61-4.68,2.23-.26-.09-.3-.37-.25-.61.5-1.45,2.18-2.52,3.55-2.78.86-.14,1.83-.03,1.53.88l-.14.28Z"/>
        <path class="cls-1" d="M75.92,103.28c-.63,1.3-2.63,2.39-4.12,2.16-.72-.02-1.1-.54-.91-1.02.51-1.35,1.92-2.28,3.27-2.49.96-.12,2.09.02,1.88,1.05l-.11.3Z"/>
        <path class="cls-1" d="M69.85,104.1c-.6,1.46-3.22,2.47-4.58,1.65-.33-.2-.42-.58-.35-.94.33-1.08,1.37-1.9,2.45-2.17,1.34-.32,2.77.05,2.57,1.17l-.1.29Z"/>
        <path class="cls-1" d="M64.1,104.61c-.71,1.94-6.6,2.67-6.82.19.32-2.48,6.89-2.83,6.89-.44l-.06.25Z"/>
        <path class="cls-1" d="M55.94,104.56c-.67,1.93-6.06,2.12-6.08-.2.41-2.29,6.04-2.48,6.14-.07l-.07.26Z"/>
        <path class="cls-1" d="M48.58,104.1c-.77,1.89-5.87,1.57-5.87-.63.5-2.46,6.1-1.68,5.93.37l-.06.26Z"/>
        <path class="cls-1" d="M41.51,103.23c-.83,1.78-5.54,1.02-5.6-1.07.45-2.21,5.69-1.29,5.66.81l-.06.26Z"/>
        <path class="cls-1" d="M34.79,101.94c-.7,1.58-5.21.38-5.2-1.5.47-2.13,5.26-.61,5.24,1.25l-.05.25Z"/>
        <path class="cls-1" d="M28.52,100.22c-.74,1.29-4.67-.28-4.64-1.91.51-1.83,4.89.16,4.7,1.68l-.06.23Z"/>
        <path class="cls-1" d="M23.01,98.13c-.61,1.01-4.05-1.14-3.99-2.34.49-1.54,4.2,1.12,4.03,2.14l-.04.2Z"/>
        <path class="cls-1" d="M18.34,95.57c-.13.31-.63-.04-.87-.16-.9-.64-2.37-1.65-2.48-2.72.1-.27.82.17.77.14.99.59,2.25,1.55,2.59,2.58v.16Z"/>
        <path class="cls-1" d="M14.72,92.73c.05.16-.22-.13-.45-.36-.48-.51-1.95-2.15-2.04-2.48.82.7,1.8,1.92,2.4,2.7l.09.14Z"/>
      </g>
      <g>
        <path class="cls-1" d="M96.41,92.63c.48-.62,2.72-3.21,2.84-3.33-.09.22-2.36,2.84-2.83,3.32h-.01Z"/>
        <path class="cls-1" d="M96.73,92.3c-.78,1.01-2.07,2.52-3.1,3.1-.79.36.61-1.44.62-1.45.62-.83,1.85-2.15,2.53-2.57.86-.55.45.21.18.59l-.23.33Z"/>
        <path class="cls-1" d="M93.95,94.3c-.49,1.08-2.7,3.05-3.59,3.02-.68.11-.46-.72-.37-.9.41-.92.79-1.35,1.44-2.03.75-.88,3.42-2.49,2.69-.44l-.17.36Z"/>
        <path class="cls-1" d="M89.92,96.03c-.56,1.4-2.81,3.39-4.34,2.78-.87-.7.17-2.14.73-2.79.91-1.27,4.23-2.58,3.73-.34l-.12.35Z"/>
        <path class="cls-1" d="M84.83,97.48c-.54,1.53-3.18,3.36-4.72,2.48-.35-.23-.44-.68-.37-1.09.31-1.35,1.43-2.37,2.64-2.87,1.48-.58,2.81-.03,2.55,1.15l-.1.33Z"/>
        <path class="cls-1" d="M78.84,98.58c-.58,1.51-2.65,2.91-4.33,2.52-.83-.1-1.29-.86-1.11-1.46.35-1.38,1.53-2.39,2.82-2.82,1.6-.5,3.03.16,2.72,1.43l-.1.33Z"/>
        <path class="cls-1" d="M72.22,99.39c-.55,2.2-5.16,3.6-5.3.72.18-1.38,1.25-2.34,2.5-2.71,1.55-.44,3.12.34,2.88,1.66l-.08.34Z"/>
        <path class="cls-1" d="M65.77,99.84c-.61,2.57-6.77,3.37-6.91.3.36-3,6.71-3.65,6.96-.59l-.05.29Z"/>
        <path class="cls-1" d="M57.5,99.94c-.69,2.55-6.36,2.78-6.41-.14.41-2.96,6.39-3.14,6.47-.16l-.05.3Z"/>
        <path class="cls-1" d="M49.74,99.65c-.82,2.5-6.18,2.17-6.23-.55.42-2.98,6.36-2.59,6.29.25l-.06.3Z"/>
        <path class="cls-1" d="M42.2,98.95c-.83,2.49-6.03,1.6-5.98-.95.44-2.88,6.01-2,6.03.66l-.04.29Z"/>
        <path class="cls-1" d="M35,97.91c-.67,2.23-5.7,1.1-5.57-1.37.56-2.71,5.57-1.35,5.61,1.08l-.04.29Z"/>
        <path class="cls-1" d="M28.34,96.51c-.67,2.04-5.15.38-5.02-1.76.46-2.58,5.09-.56,5.05,1.47l-.03.29Z"/>
        <path class="cls-1" d="M22.37,94.76c-.62,1.71-4.57-.36-4.31-2.16.54-2.22,4.53.22,4.36,1.89l-.05.27Z"/>
        <path class="cls-1" d="M17.34,92.62c-.05.58-.96.39-1.12.3-1.11-.41-2.47-1.67-2.51-2.74,0-.63.45-.64.91-.54,1.3.36,2.58,1.54,2.74,2.74v.24Z"/>
        <path class="cls-1" d="M13.27,90.16c0,.4-.43.12-.63-.01-.85-.64-1.9-1.85-2.15-2.74-.11-.48.19-.37.42-.25.95.59,2,1.82,2.32,2.78l.04.22Z"/>
        <path class="cls-1" d="M8.23,84.22c.64.82,2.94,4.41,1.22,1.9-.35-.51-.99-1.45-1.22-1.88v-.02Z"/>
      </g>
      <g>
        <path class="cls-1" d="M99.77,88.65c-.17.15-.23.14-.15-.07.76-1.52,2.05-3.58,3.09-4.61.27.37-2.3,4-2.87,4.6l-.07.07Z"/>
        <path class="cls-1" d="M100.33,87.2c-.65,1.37-1.58,2.68-2.63,3.26-.22.11-.38.13-.5.08-.27-.19-.09-.67-.02-.97.26-.79.44-1.07.76-1.65.53-.92,1.56-2.17,2.35-2.33.7-.09.33.81.21,1.19l-.17.42Z"/>
        <path class="cls-1" d="M97.27,88.91c-.26,1.3-2.37,3.59-3.38,3.33-.55,0-.72-.56-.67-1.07.15-1.15.65-1.99,1.39-2.88.97-1.25,3.2-1.89,2.76.22l-.11.4Z"/>
        <path class="cls-1" d="M92.94,90.47c-.32,1.12-1.51,2.55-2.63,2.97-1.32.6-2.31-.14-2.01-1.43.31-1.42,1.24-2.64,2.44-3.29,1.54-.82,2.62.16,2.3,1.37l-.1.39Z"/>
        <path class="cls-1" d="M87.54,91.68c-.48,1.55-2.34,3.38-4.09,3.01-.78-.14-1.2-.79-1.12-1.54.21-1.5,1.32-2.8,2.63-3.39,1.62-.72,2.99.27,2.67,1.56l-.09.36Z"/>
        <path class="cls-1" d="M81.31,92.71c-.32,1.29-1.77,2.66-3.14,2.87-1.31.3-2.86-.46-2.61-1.92.26-1.47,1.33-2.59,2.65-3.09,1.71-.6,3.37.18,3.17,1.8l-.07.35Z"/>
        <path class="cls-1" d="M74.33,93.48c-.31,1.31-1.77,2.58-3.15,2.71-1.31.21-2.7-.68-2.53-2.07.19-1.46,1.21-2.53,2.53-3,1.7-.58,3.4.36,3.22,2.01l-.06.35Z"/>
        <path class="cls-1" d="M67.21,93.95c-.5,3.13-6.98,3.85-6.99.3.25-3.34,6.72-4.26,7.03-.62l-.04.32Z"/>
        <path class="cls-1" d="M58.82,94.14c-.59,3.1-6.74,3.28-6.72-.07.24-3.37,6.64-3.82,6.76-.25l-.04.33Z"/>
        <path class="cls-1" d="M50.71,93.98c-.66,3.1-6.64,2.76-6.6-.41.26-3.39,6.54-3.31,6.64.09l-.04.32Z"/>
        <path class="cls-1" d="M42.76,93.5c-.48,2.83-6.4,2.4-6.36-.74.28-3.42,6.42-2.66,6.39.42l-.03.32Z"/>
        <path class="cls-1" d="M35.15,92.72c-.79,2.92-6,1.67-5.92-1.13.39-3.2,5.92-2.07,5.94.8l-.03.33Z"/>
        <path class="cls-1" d="M28.07,91.69c-.72,2.71-5.42.88-5.3-1.52.29-3.15,5.41-1.35,5.33,1.19l-.02.33Z"/>
        <path class="cls-1" d="M21.74,90.31c-.41,1.65-2.88,1.17-3.99-.32-.3-.36-.63-1.26-.59-1.54.26-2.99,4.67-.54,4.6,1.54l-.02.32Z"/>
        <path class="cls-1" d="M16.36,88.63c-.64,2.12-4.06-.52-3.88-2.19-.01-1.35,1.49-1.17,2.35-.54.78.45,1.58,1.65,1.55,2.41l-.02.32Z"/>
        <path class="cls-1" d="M12.01,86.64c-.21,1.32-1.91-.29-2.26-.83-.44-.53-1.37-2.41-.23-2.37,1.1.2,2.34,1.88,2.47,2.9l.02.3Z"/>
        <path class="cls-1" d="M8.81,84.37c.11.68-.5-.1-.65-.27-.52-.65-1.19-1.81-1.41-2.45-.13-.45-.14-.31-.08-.52.89.49,1.73,2.1,2.06,2.97l.07.26Z"/>
        <path class="cls-1" d="M6.65,81.51s-.63-1.2-.61-1.18c-.02-.05.62,1.19.56,1.08l.05.1Z"/>
      </g>
      <g>
        <path class="cls-1" d="M105.19,79.69c-.54,1.37-1.18,2.63-1.78,3.27-1.15.95.14-2.28.21-2.4.34-.82,1.09-2.34,1.65-2.71.68-.39.18,1.04.09,1.36l-.17.48Z"/>
        <path class="cls-1" d="M103.28,81.31c-.23,1.12-2.29,4.62-3.09,2.82-.14-.66.14-1.62.29-2.05.33-1.03,1.31-2.7,2.18-2.98,1.02-.31.91,1.05.75,1.74l-.13.48Z"/>
        <path class="cls-1" d="M100.01,82.58c-.14.7-.48,1.5-.93,2.12-1.51,2.11-3.41,1.63-3.14-.45.16-1.21.49-1.93,1.17-2.84,1.26-1.64,3.24-1.49,2.97.72l-.07.45Z"/>
        <path class="cls-1" d="M95.42,83.93c-.24,1.2-1.23,2.64-2.37,3.15-1.51.75-2.7-.38-2.42-1.93.17-1.11.77-2.24,1.61-2.96,1.52-1.44,3.52-.69,3.24,1.33l-.07.41Z"/>
        <path class="cls-1" d="M89.8,84.97c-.34,2.11-3.65,4.72-5.2,2.28-.74-1.84.79-4.03,2.41-4.7,1.65-.66,3.09.48,2.85,2.04l-.07.38Z"/>
        <path class="cls-1" d="M83.27,85.86c-.25,1.39-1.62,2.86-3.06,3.13-1.51.37-3.11-.7-2.93-2.31.15-1.37.89-2.36,1.99-3.06,1.77-1.14,4.23-.27,4.06,1.87l-.05.37Z"/>
        <path class="cls-1" d="M76.05,86.55c-.44,3.35-6.1,4.47-6.2.58.1-3.57,6.03-5.08,6.24-.95l-.04.36Z"/>
        <path class="cls-1" d="M68.35,87.05c-.42,3.57-7.06,4.26-7.09.32.12-3.78,6.82-4.71,7.11-.66l-.03.34Z"/>
        <path class="cls-1" d="M59.83,87.33c-.51,3.56-6.95,3.78-6.99.02.07-3.78,6.86-4.34,7.02-.36l-.03.34Z"/>
        <path class="cls-1" d="M51.42,87.32c-.51,3.56-6.92,3.31-6.89-.25.11-3.79,6.76-3.89,6.92-.08l-.02.34Z"/>
        <path class="cls-1" d="M43.16,87.07c-.59,3.47-6.6,2.85-6.64-.53.11-3.83,6.66-3.27,6.66.19l-.02.34Z"/>
        <path class="cls-1" d="M35.2,86.6c-.48,3.24-6.16,2.38-6.18-.85.16-3.76,6.22-2.68,6.2.51l-.02.34Z"/>
        <path class="cls-1" d="M27.81,85.83c-.47,3.13-5.61,1.81-5.6-1.13.16-3.51,5.54-2.13,5.6.79v.35Z"/>
        <path class="cls-1" d="M21.16,84.85c-.68,3.11-5.31.89-4.84-1.82.7-2.89,4.86-.87,4.85,1.46v.36Z"/>
        <path class="cls-1" d="M15.42,83.66c-.25,1.6-2.15,1.37-3.1.23-.61-.7-.99-1.67-.82-2.6.26-1.14,1.56-1.08,2.42-.47.76.43,1.51,1.74,1.51,2.47v.37Z"/>
        <path class="cls-1" d="M10.83,82.22c-.08,1.28-1.27.96-1.89.38-.82-.68-1.47-2.2-1.16-3.2.3-.75,1.15-.41,1.71.02.67.43,1.33,1.79,1.33,2.43v.38Z"/>
        <path class="cls-1" d="M7.42,80.48c.06.99-.82.37-1.08,0-.53-.65-.96-1.54-1.11-2.39-.08-.66.01-.95.5-.71.81.43,1.54,2.01,1.64,2.76l.04.35Z"/>
        <path class="cls-1" d="M5.3,78.48c.28,1.29-1.39-2.63-1.33-2.91.51.71.87,1.69,1.23,2.58l.11.33Z"/>
      </g>
      <g>
        <path class="cls-1" d="M107.26,75.06c-.17.4-.22.43-.18.17.39-1.54,1.11-3.86,1.68-5.24.42-.42-1.25,4.45-1.45,4.94l-.05.13Z"/>
        <path class="cls-1" d="M107.56,73.39c-.11,1.12-1.97,5.21-2.08,2.28.06-1.01.26-1.77.5-2.53.24-.79.81-2.04,1.35-2.26.71-.19.41,1.46.34,1.94l-.12.58Z"/>
        <path class="cls-1" d="M105.48,74.54c-.08,1.42-2.11,5.06-3,2.63-.18-.73,0-1.84.13-2.35.28-1.09.88-2.59,1.9-2.94,1.14-.33,1.15,1.62,1.06,2.13l-.08.53Z"/>
        <path class="cls-1" d="M102.02,75.62c-.13.82-.48,1.7-.92,2.32-1.56,2.17-3.28.97-3.09-1.13.11-1.14.25-1.55.7-2.45,1.3-2.41,3.59-2.04,3.37.78l-.06.49Z"/>
        <path class="cls-1" d="M97.27,76.63c-.24,1.32-1.27,2.88-2.57,3.22-1.73.45-2.44-1.39-2.24-2.4.13-1.12.7-2.32,1.55-3.04,1.69-1.54,3.6-.19,3.31,1.81l-.06.41Z"/>
        <path class="cls-1" d="M91.49,77.44c-.21,1.34-1.3,2.85-2.64,3.24-1.57.55-3.11-.8-2.96-2.41.1-1.54,1-2.89,2.29-3.55,1.79-.91,3.53.53,3.35,2.32l-.05.39Z"/>
        <path class="cls-1" d="M84.71,78.17c-.39,3.56-5.96,5.08-6.21.69.08-3.88,5.94-5.59,6.24-1.07l-.03.38Z"/>
        <path class="cls-1" d="M77.23,78.82c-.39,3.82-6.39,4.69-6.6.52-.01-4.01,6.31-5.32,6.62-.88l-.02.36Z"/>
        <path class="cls-1" d="M69.16,79.34c-.4,3.96-7,4.51-7.18.33-.03-4.14,6.84-5.11,7.19-.69l-.02.35Z"/>
        <path class="cls-1" d="M60.52,79.68c-.46,3.96-7.05,4.19-7.2.11-.01-4.13,6.96-4.77,7.21-.46l-.02.35Z"/>
        <path class="cls-1" d="M51.87,79.84c-.43,3.93-7.01,3.8-7.12-.09-.01-4.13,6.88-4.41,7.13-.26v.35Z"/>
        <path class="cls-1" d="M43.34,79.81c-.4,3.77-6.72,3.47-6.87-.29,0-4.19,6.74-3.84,6.87-.05v.35Z"/>
        <path class="cls-1" d="M35.12,79.63c-.46,3.69-6.27,2.92-6.4-.54.05-4.08,6.27-3.37,6.4.18v.35Z"/>
        <path class="cls-1" d="M27.48,79.21c-.48,3.63-5.8,2.34-5.83-.75.03-3.79,5.62-2.93,5.83.39v.36Z"/>
        <path class="cls-1" d="M20.58,78.63c-.59,3.49-5.09,1.74-5.03-1.03.09-3.62,4.94-2.31,5.03.66v.37Z"/>
        <path class="cls-1" d="M14.59,77.86c-.08,1.71-2.02,2.14-3.17.85-.52-.44-.97-1.63-.95-2.13.09-3.44,4.01-1.62,4.12.89v.39Z"/>
        <path class="cls-1" d="M9.79,76.92c-.12,2.11-2.35,1.26-2.91-.28-.1-.22-.19-.46-.24-.7-.05-.16-.11-.65-.09-.46-.03-1,.03-.68.07-.98.25-.74.97-.86,1.68-.46.75.31,1.47,1.82,1.47,2.46l.02.42Z"/>
        <path class="cls-1" d="M6.23,75.83c.02,1.05-.59,1.29-1.2.61-.58-.61-.94-1.63-1.04-2.5-.04-.76-.04-1.32.62-1.17.92.33,1.44,1.62,1.59,2.61l.03.45Z"/>
        <path class="cls-1" d="M3.92,74.39c.13.56.09,1.06-.27.38-.32-.49-1.34-3.35-.99-3.38.57.61.9,1.71,1.16,2.57l.1.42Z"/>
      </g>
      <g>
        <path class="cls-1" d="M109.46,68.09c-.79,2.64-.2-2.17-.11-2.39.12-.7.35-2.02.58-2.5.63-.7-.31,4.29-.42,4.69l-.05.2Z"/>
        <path class="cls-1" d="M109.1,66.38c-.08.68-.23,1.38-.4,1.93-.61,1.83-1.3,1.98-1.48.49-.03-.27-.04-.6-.02-.97,0-.18.06-.82.04-.57.14-1.09.38-2.69,1.07-3.46.9-.87.9,1.75.84,2.01l-.05.57Z"/>
        <path class="cls-1" d="M106.95,67.19c-.08.83-.31,1.68-.62,2.28-1.58,2.67-2.64.11-2.47-1.34.08-1.24.17-1.68.56-2.67,1.36-2.69,2.73-.72,2.56,1.19l-.03.54Z"/>
        <path class="cls-1" d="M103.38,68.05c-.18,1.24-.84,2.71-1.95,3.16-1.9.55-2.25-2.41-1.93-3.5.54-3.42,4.05-4.31,3.93-.12l-.05.46Z"/>
        <path class="cls-1" d="M98.45,68.72c-.42,4.08-4.91,4.84-4.93.61-.03-3.89,4.67-5.91,4.95-1.05l-.03.44Z"/>
        <path class="cls-1" d="M92.54,69.27c-.32,3.92-5.54,4.95-5.75.61.02-3.97,5.33-5.55,5.76-1v.39Z"/>
        <path class="cls-1" d="M85.56,69.88c-.25,3.99-6.08,5.08-6.35.54-.01-4.19,5.9-5.52,6.36-.92v.38Z"/>
        <path class="cls-1" d="M77.89,70.46c-.33,4.19-6.53,4.81-6.85.46-.08-4.46,6.5-5.34,6.85-.83v.37Z"/>
        <path class="cls-1" d="M69.59,70.98c-.3,4.27-6.99,4.69-7.26.35-.08-4.54,6.91-5.19,7.26-.71v.36Z"/>
        <path class="cls-1" d="M60.85,71.39c-.34,4.27-7.07,4.49-7.35.22-.08-4.55,7.02-4.96,7.35-.58v.36Z"/>
        <path class="cls-1" d="M52.02,71.72c-.35,4.22-7.02,4.22-7.27.09-.08-4.49,6.92-4.7,7.27-.44v.35Z"/>
        <path class="cls-1" d="M43.31,71.92c-.28,4.03-6.74,3.96-7.02-.04-.1-4.41,6.7-4.39,7.02-.32v.36Z"/>
        <path class="cls-1" d="M34.91,72c-.3,3.94-6.29,3.62-6.55-.2-.07-4.24,6.25-3.95,6.55-.15v.36Z"/>
        <path class="cls-1" d="M27.09,71.96c-.27,3.75-5.75,3.15-5.97-.35-.03-4.07,5.67-3.49,5.96-.01v.37Z"/>
        <path class="cls-1" d="M20.03,71.81c-.37,3.61-5,2.47-5.17-.51-.14-3.8,4.88-3.17,5.16.13v.38Z"/>
        <path class="cls-1" d="M13.88,71.5c-.43,3.37-4.11,1.89-4.25-.68-.13-3.55,3.95-2.62,4.24.3l.02.38Z"/>
        <path class="cls-1" d="M8.92,71.02c-.11,2.78-2.79,1.79-3.23-.32-.18-.62-.1-1.35-.05-1.49.86-2.54,3.22-.2,3.25,1.37l.03.43Z"/>
        <path class="cls-1" d="M5.21,70.5c.04,2.27-1.59,1.58-2.05-.14-.2-.5-.27-1.62-.17-1.94.58-2.11,2.19.45,2.18,1.58l.04.5Z"/>
        <path class="cls-1" d="M2.79,69.78c.11.99-.19,1.46-.64.47-.35-.83-.56-2.01-.59-2.72-.03-.38.04-.78.4-.36.29.27.67,1.45.76,2.07l.07.54Z"/>
        <path class="cls-1" d="M1.78,68.67c-.05-.1-.59-2.44-.54-2.29.13.49.42,1.73.5,2.09l.04.2Z"/>
      </g>
      <g>
        <path class="cls-1" d="M110.52,61.35c-.39,1.57-.5-1.09-.46-1.55.03-1.17.05-2.41.29-3.64.66-1.99.39,4.68.2,5.03l-.03.16Z"/>
        <path class="cls-1" d="M109.83,59.21c-.08.92-.18,2.49-.89,3.03-1.3.23-.98-3.9-.71-4.84.89-3.18,1.72-.06,1.61,1.28v.53Z"/>
        <path class="cls-1" d="M107.62,59.55c0,1.33-.76,3.76-2.1,3.16-1.02-.62-1.03-3.01-.9-3.98.46-3.6,2.97-3.48,3,.26v.57Z"/>
        <path class="cls-1" d="M103.96,59.88c.03,1.51-1.29,4.12-2.83,3.09-1.45-1.05-1.4-3.63-.74-5.1,1.41-2.87,3.62-.99,3.58,1.54v.47Z"/>
        <path class="cls-1" d="M98.99,60.37c-.25,4.22-4.74,4.67-4.99.4-.18-4.29,4.52-5.7,4.99-.85v.45Z"/>
        <path class="cls-1" d="M92.95,60.73c-.25,4.28-5.54,4.69-5.85.38-.12-4.31,5.3-5.32,5.84-.78v.39Z"/>
        <path class="cls-1" d="M85.87,61.2c-.22,4.4-6.14,4.78-6.46.38-.15-4.45,5.92-5.36,6.45-.76v.38Z"/>
        <path class="cls-1" d="M78.04,61.69c-.17,4.39-6.56,4.92-6.98.37-.13-4.66,6.48-5.27,6.97-.75v.37Z"/>
        <path class="cls-1" d="M69.62,62.22c-.21,4.48-6.95,4.76-7.32.35-.16-4.75,6.83-5.27,7.31-.71v.37Z"/>
        <path class="cls-1" d="M60.8,62.69c-.14,4.41-7.02,4.81-7.44.32-.18-4.69,6.93-5.12,7.42-.68v.36Z"/>
        <path class="cls-1" d="M51.87,63.17c-.17,4.34-6.94,4.65-7.36.27-.18-4.61,6.87-4.97,7.35-.62v.36Z"/>
        <path class="cls-1" d="M43.05,63.61c-.15,4.23-6.7,4.41-7.12.21-.19-4.49,6.63-4.75,7.1-.57l.02.36Z"/>
        <path class="cls-1" d="M34.56,63.99c-.16,4.05-6.26,4.14-6.64.13-.2-4.32,6.19-4.47,6.63-.5l.02.36Z"/>
        <path class="cls-1" d="M26.61,64.33c-.24,3.92-5.68,3.64-6.02.06-.22-4.16,5.57-4.2,6-.43l.02.37Z"/>
        <path class="cls-1" d="M19.49,64.55c-.13,3.6-4.91,3.39-5.27-.02-.23-3.76,4.76-3.86,5.24-.36l.02.38Z"/>
        <path class="cls-1" d="M13.25,64.73c-.25,3.42-4.05,2.76-4.31-.12-.26-3.52,3.88-3.5,4.29-.27l.02.39Z"/>
        <path class="cls-1" d="M8.22,64.9c-.22,3.33-3.18,2.24-3.35-.25-.31-3.4,3.01-3.29,3.33-.2l.02.45Z"/>
        <path class="cls-1" d="M4.36,64.69c.11,1.91-1.06,2.67-1.83,1.1-.49-.97-.53-2.49-.15-3.16.89-1.45,1.94.84,1.93,1.57l.05.48Z"/>
        <path class="cls-1" d="M1.94,64.69c.11.96-.23,2.35-.79.92-.2-.54-.33-1.51-.34-2.22-.02-.39.06-1.38.45-1.08.17.13.38.51.54,1.24.05.17.13.8.1.56l.06.58Z"/>
        <path class="cls-1" d="M.94,64.38c.4,3.07-.32-1.2-.38-1.91-.07-.65,0-.43.2.72.03.18.13.85.09.59l.09.59Z"/>
      </g>
      <g>
        <path class="cls-1" d="M110.64,51.55s-.15-1.93-.16-2.03c.05.61.11,1.48.16,2.06v-.02Z"/>
        <path class="cls-1" d="M110.72,51.9c.04.99.02,1.81-.03,2.19-.06.41-.09.52-.19.46-.6-1.2-.54-3.64-.52-5.05.07-.91.19-1,.34-.69.19.28.38,2.29.37,2.44l.03.64Z"/>
        <path class="cls-1" d="M109.81,51.82c.11,2.06-.83,3.98-1.61,1.67-.26-.87-.33-1.99-.31-2.93.04-.69.13-1.83.66-2.18.82-.55,1.27,2.36,1.24,2.82l.02.61Z"/>
        <path class="cls-1" d="M107.53,51.66c.09,1.24-.63,3.66-1.98,2.7-.99-.8-1.19-2.6-1.11-3.86.42-3.7,2.91-2.38,3.06.65l.03.5Z"/>
        <path class="cls-1" d="M103.78,51.7c-.12,4.72-3.97,3.92-4.1-.06-.23-4.39,3.54-4.97,4.07-.45l.03.51Z"/>
        <path class="cls-1" d="M98.81,51.89c-.15,4.62-4.73,4.15-5.06.06-.33-4.55,4.51-5.09,5.04-.51l.02.45Z"/>
        <path class="cls-1" d="M92.71,52.03c-.09,4.36-5.48,4.41-5.91.14-.18-4.63,5.36-4.78,5.89-.53l.02.39Z"/>
        <path class="cls-1" d="M85.58,52.37c-.09,4.5-6.06,4.66-6.52.22-.22-4.73,5.95-5.02,6.49-.6l.02.38Z"/>
        <path class="cls-1" d="M77.69,52.77c-.08,4.53-6.51,4.78-7.03.3-.25-4.81,6.41-5.09,7.01-.67l.02.37Z"/>
        <path class="cls-1" d="M69.23,53.27c-.03,4.54-6.85,4.86-7.35.36-.25-4.82,6.7-5.18,7.33-.72l.03.36Z"/>
        <path class="cls-1" d="M60.38,53.84c-.04,4.51-6.93,4.87-7.46.4-.29-4.74,6.85-5.2,7.44-.76l.02.36Z"/>
        <path class="cls-1" d="M51.42,54.45c-.07,4.51-6.94,4.7-7.38.42-.3-4.64,6.76-5.11,7.36-.78l.03.36Z"/>
        <path class="cls-1" d="M42.55,55.07c0,4.29-6.64,4.76-7.11.44-.25-4.45,6.45-4.96,7.08-.79l.03.36Z"/>
        <path class="cls-1" d="M34.05,55.71c.04,4.12-6.2,4.63-6.69.47-.3-4.27,6.02-4.82,6.66-.84l.03.36Z"/>
        <path class="cls-1" d="M26.1,56.39c-.05,3.98-5.57,4.3-6.03.49-.31-4.09,5.38-4.74,6-.86l.03.37Z"/>
        <path class="cls-1" d="M18.93,57.07c-.02,3.54-4.74,4.06-5.28.47-.39-3.74,4.62-4.61,5.25-.85l.03.38Z"/>
        <path class="cls-1" d="M12.73,57.76c-.12,3.78-4.47,3.6-4.34-.17.18-3.2,3.86-3.48,4.31-.26l.03.43Z"/>
        <path class="cls-1" d="M7.64,58.38c-.08,3.07-3,3.3-3.3.43-.36-2.99,2.63-4.4,3.28-.89l.02.46Z"/>
        <path class="cls-1" d="M3.85,58.97c-.03,2.99-2.04,2.71-2.2.28-.31-2.96,1.8-3.79,2.17-.77l.03.49Z"/>
        <path class="cls-1" d="M1.35,59.37c.01,2.52-.8,2.52-.94.4-.24-2.01.47-4.14.91-1.01l.03.61Z"/>
        <path class="cls-1" d="M.4,59.75c.06,1.04.04,1.44.02,1.49-.09-.29-.09-.84-.15-1.44-.03-.42-.06-.92-.08-1.34-.02-.53,0-.52.03-.4.02.09.05.25.08.53.01.1.07.77.05.52l.04.64Z"/>
      </g>
      <g>
        <path class="cls-1" d="M109.9,45.23c.28,1.45.27,3.61-.47,1.02-.27-1.08-.54-2.62-.6-3.74-.03-.9.14-.94.31-.61.24.41.62,2.4.66,2.71l.1.62Z"/>
        <path class="cls-1" d="M109.03,44.63c.18,2.9-.94,2.9-1.55,1.33-.44-1.08-.65-2.51-.61-3.71.05-1.79,1.1-2,1.79.32.08.27.15.56.21.86.05.2.14.86.1.61l.06.6Z"/>
        <path class="cls-1" d="M106.57,43.75c.45,2.36-1.01,4.17-2.41,1.52-.49-.85-.79-2.49-.7-3.27.1-1.72,1.2-2.18,2.11-.88.45.61.75,1.41.92,2.17l.08.46Z"/>
        <path class="cls-1" d="M102.84,43.52c.09,4.5-3.74,3.31-4.17-.28-.39-2.3,1.11-4.67,3.03-2.66.59.66.94,1.59,1.09,2.48l.05.47Z"/>
        <path class="cls-1" d="M97.94,43.34c-.01,4.88-4.89,3.59-5.18-.3-.28-4.53,4.49-4.09,5.13-.13l.05.43Z"/>
        <path class="cls-1" d="M91.8,43.39c.03,4.52-5.35,3.89-5.92-.09-.3-4.8,5.19-4.3,5.87-.3l.05.39Z"/>
        <path class="cls-1" d="M84.7,43.58c.03,4.54-5.95,4.23-6.51.06-.33-4.81,5.82-4.56,6.47-.44l.04.37Z"/>
        <path class="cls-1" d="M76.84,43.92c.06,4.55-6.45,4.49-7,.21-.35-4.8,6.28-4.83,6.96-.58l.04.37Z"/>
        <path class="cls-1" d="M68.4,44.4c-.02,4.66-6.75,4.61-7.31.36-.38-4.8,6.56-5.02,7.27-.72l.04.36Z"/>
        <path class="cls-1" d="M59.6,45.01c.12,4.51-6.82,4.92-7.43.52-.38-4.68,6.64-5.15,7.39-.87l.04.36Z"/>
        <path class="cls-1" d="M50.68,45.8c.14,4.35-6.77,4.89-7.34.58-.38-4.54,6.57-5.13,7.3-.94l.04.35Z"/>
        <path class="cls-1" d="M41.88,46.67c.16,4.15-6.46,4.91-7.07.73-.44-4.39,6.29-5.22,7.03-1.08l.04.36Z"/>
        <path class="cls-1" d="M33.41,47.63c.1,4.02-6.03,4.76-6.58.8-.45-4.07,5.75-5.24,6.55-1.16l.03.36Z"/>
        <path class="cls-1" d="M25.55,48.68c.11,3.63-5.33,4.62-5.99.85-.49-3.96,5.22-5.11,5.95-1.23l.03.37Z"/>
        <path class="cls-1" d="M18.44,49.67c.07,3.41-4.65,4.36-5.17.88-.41-3.39,4.34-4.89,5.14-1.25l.03.38Z"/>
        <path class="cls-1" d="M12.31,50.71c.11,3.08-3.79,4.37-4.29,1.06-.46-3.13,3.37-5.12,4.25-1.47l.03.41Z"/>
        <path class="cls-1" d="M7.29,51.76c.3,2.12-2.18,4.42-3.08,1.67-.3-1.11-.14-2.89.93-3.62,1.16-.79,2.03.69,2.1,1.49l.05.46Z"/>
        <path class="cls-1" d="M3.52,52.98c.01,2.88-2.29,3.54-2.15.29.04-.75.37-1.93.97-2.19.84-.22,1.06.79,1.15,1.43l.02.47Z"/>
        <path class="cls-1" d="M1.15,53.95c.13.78-.5,3.74-.85,1.75-.06-.96-.2-2.52.34-3.42.25-.19.37.3.43.62.03.11.08.7.06.48l.02.57Z"/>
        <path class="cls-1" d="M.16,54.92c0,.67-.03,2.29-.04.84,0-.52,0-1.27.03-1.54,0-.01,0,.39,0,.24v.47Z"/>
      </g>
      <g>
        <path class="cls-1" d="M108.72,40.53c.02.15-.06.11-.06.1-.53-.78-1.14-2.85-1.39-3.63-.04-.19-.7-2.26-.31-1.83.69,1.32,1.49,3.87,1.75,5.29v.08Z"/>
        <path class="cls-1" d="M107.33,37.56c.25,1.07.29,2.88-.77,1.88-.74-.83-1.17-2.23-1.43-3.39-.22-.91-.36-3,.81-1.88.46.39,1.18,2.35,1.27,2.83l.13.55Z"/>
        <path class="cls-1" d="M105,36.59c.36,2.4-1.19,3.16-2.47,1.16-.73-1.25-1.44-3.51-.51-4.69,1.48-1.04,2.74,2.04,2.89,3.01l.09.53Z"/>
        <path class="cls-1" d="M101.24,35.67c.3,1.3-.1,2.97-1.63,2.64-1.55-.35-2.82-3.07-2.66-4.45.47-3.53,3.8-.75,4.19,1.38l.1.43Z"/>
        <path class="cls-1" d="M96.32,35.22c.14,1.12-.09,1.99-1,2.56-1.56.89-3.58-1.02-4-2.62-.38-1.2-.24-2.68,1.03-3.25,1.77-.66,3.46,1.29,3.88,2.91l.08.4Z"/>
        <path class="cls-1" d="M90.24,35.1c.14,4.55-5.21,3.32-5.82-.35-.24-1.3.23-2.45,1.4-2.96,1.92-.86,4.05,1.25,4.36,2.93l.07.38Z"/>
        <path class="cls-1" d="M83.24,35.11c.16,4.49-5.85,3.78-6.43-.09-.2-1.32.31-2.43,1.44-3.02,2.01-1.12,4.59.82,4.93,2.75l.06.37Z"/>
        <path class="cls-1" d="M75.5,35.37c.18,4.5-6.31,4.14-6.91.11-.36-4.69,6.06-4.41,6.85-.47l.06.36Z"/>
        <path class="cls-1" d="M67.17,35.84c.15,4.43-6.55,4.44-7.22.35-.46-4.68,6.4-4.72,7.17-.7l.05.35Z"/>
        <path class="cls-1" d="M58.47,36.53c.14,4.44-6.68,4.58-7.3.56-.52-4.55,6.47-4.97,7.25-.91l.05.35Z"/>
        <path class="cls-1" d="M49.69,37.41c.23,4.17-6.5,4.93-7.22.81-.54-4.4,6.34-5.22,7.17-1.16l.05.35Z"/>
        <path class="cls-1" d="M41,38.52c.2,4.08-6.26,4.93-6.93.98-.53-4.21,6.03-5.28,6.89-1.33l.05.35Z"/>
        <path class="cls-1" d="M32.7,39.75c.24,3.86-5.85,5-6.51,1.14-.52-3.82,5.48-5.38,6.46-1.49l.05.35Z"/>
        <path class="cls-1" d="M24.96,41.16c.25,3.37-5.06,5.06-5.83,1.28-.57-3.51,4.85-5.47,5.78-1.65l.04.37Z"/>
        <path class="cls-1" d="M17.98,42.62c.27,2.97-4.31,4.92-5.05,1.38-.52-3.2,4.04-5.29,5-1.76l.05.38Z"/>
        <path class="cls-1" d="M12.01,44.09c.24,2.69-3.53,4.72-4.12,1.55-.15-1.11.28-2.41,1.17-3.07,1.18-.95,2.68-.21,2.9,1.13l.05.4Z"/>
        <path class="cls-1" d="M7.11,45.59c.29,1.76-2,4.76-2.99,2.18-.32-1.14-.02-2.9.99-3.69,1.07-.83,1.87.21,1.96,1.07l.04.44Z"/>
        <path class="cls-1" d="M3.51,47.26c.17,1.47-1.5,4.6-1.98,1.8-.08-1.04.17-2.65.98-3.26.71-.45.97.7.98.98l.02.47Z"/>
        <path class="cls-1" d="M1.21,48.8c-.03.81-.16,2.22-.55,2.8-.15.15-.14.07-.2-.01-.22-.98-.03-2.79.3-3.69.19-.43.38-.22.42.14.02.07.04.49.03.33v.43Z"/>
      </g>
      <g>
        <path class="cls-1" d="M106.38,33.76c-.69-1.14-1.9-3.6-2.42-4.92.65,1.04,2,3.76,2.42,4.89v.03Z"/>
        <path class="cls-1" d="M105,31.18c.64,1.96-.23,1.86-1.16.48-.59-.83-1.39-2.55-1.57-3.5-.07-.33-.16-.9.16-.94,1.15.34,2.02,2.58,2.4,3.46l.17.5Z"/>
        <path class="cls-1" d="M102.56,29.56c.35,1.02.14,2.39-1,1.84-1.31-.71-2.37-2.75-2.56-4.32-.08-1.38.96-1.55,2.16-.16.54.63.96,1.41,1.26,2.2l.15.46Z"/>
        <path class="cls-1" d="M98.92,28.44c.43,1.53-.59,2.93-2.21,1.9-1.23-.76-2.16-2.48-2.22-3.99.04-1.23.88-1.67,1.93-1.26,1.05.41,2.03,1.76,2.39,2.91l.12.44Z"/>
        <path class="cls-1" d="M94.05,27.64c.16.92.1,1.42-.45,2.03-1.94,1.49-4.51-1.26-4.7-3.29-.22-1.37.99-2.42,2.32-1.97,1.2.35,2.32,1.6,2.73,2.83l.11.39Z"/>
        <path class="cls-1" d="M88.11,27.29c.34,3.93-4.56,2.93-5.56.03-.58-1.3-.25-2.86,1.18-3.29,1.84-.52,3.77,1.15,4.29,2.88l.09.37Z"/>
        <path class="cls-1" d="M81.27,27.18c.2,4.27-5.59,3.27-6.25-.24-.27-1.29.28-2.36,1.47-2.82,1.92-.82,4.28.95,4.71,2.7l.08.36Z"/>
        <path class="cls-1" d="M73.8,27.37c.23,4.29-6.2,3.68-6.84,0-.22-1.24.28-2.21,1.33-2.81,2.02-1.21,4.99.36,5.44,2.45l.07.35Z"/>
        <path class="cls-1" d="M65.55,27.79c.29,4.21-6.39,4.14-7.07.34-.49-4.41,6.14-4.33,7-.69l.07.35Z"/>
        <path class="cls-1" d="M57.03,28.53c.28,4.35-6.89,4.38-7.16.29-.08-4.02,6.32-4.13,7.09-.63l.06.34Z"/>
        <path class="cls-1" d="M48.45,29.55c.29,4.2-6.78,4.67-7.06.57-.12-3.88,6.17-4.42,7-.91l.06.34Z"/>
        <path class="cls-1" d="M40,30.85c.32,3.79-6.04,4.93-6.77,1.22-.64-3.8,5.7-5.34,6.71-1.56l.05.34Z"/>
        <path class="cls-1" d="M31.9,32.42c.29,3.35-5.37,5.06-6.28,1.43-.71-3.59,5.25-5.5,6.23-1.78l.05.35Z"/>
        <path class="cls-1" d="M24.34,34.06c.34,3.15-4.87,5.27-5.64,1.73-.59-3.16,4.43-5.56,5.58-2.08l.06.35Z"/>
        <path class="cls-1" d="M17.62,35.94c.34,2.75-4.11,5.19-4.88,1.88-.19-1.36.39-2.52,1.43-3.27,1.33-.94,3.07-.48,3.4,1.02l.05.36Z"/>
        <path class="cls-1" d="M11.82,37.85c.41,2.14-3,5.18-3.89,2.11-.23-1.33.25-2.48,1.22-3.3,1.09-.91,2.41-.38,2.61.8l.06.39Z"/>
        <path class="cls-1" d="M7.18,39.87c.17,1.15-.86,3.24-1.95,3.28-.59.15-.98-.66-.99-.95-.12-.95,0-1.44.34-2.26.5-1.25,2.16-2.16,2.55-.46l.05.39Z"/>
        <path class="cls-1" d="M3.72,41.98c.03,1.02-.39,2.52-1.23,3.14-.33.18-.37.13-.52-.09-.4-1.16.06-3.04.87-3.84.56-.5.82,0,.85.4l.03.38Z"/>
        <path class="cls-1" d="M1.7,44.21c.06.46-.92,4.18-.81,2.45-.06-.34.77-4.85.84-2.86l-.03.41Z"/>
      </g>
      <g>
        <path class="cls-1" d="M103.48,27.93c-.52-.84-1.66-2.66-2.17-3.51.5.72,1.69,2.65,2.18,3.52h0Z"/>
        <path class="cls-1" d="M101.86,25.33c.69,1.3.27,1.3-.61.32-.72-.81-1.65-2.22-2.16-3.31-.68-1.43.1-.84.68-.16.5.5,1.61,2.19,1.88,2.74l.22.42Z"/>
        <path class="cls-1" d="M99.6,23.43c.8,2.38-1.2,1.45-2.12.31-.7-.76-1.51-2.13-1.66-3.08-.21-1.04.72-.99,1.4-.47.76.44,1.93,2.09,2.21,2.81l.18.44Z"/>
        <path class="cls-1" d="M95.93,21.9c.71,2.6-2.03,1.8-3.06.46-.74-.77-1.26-1.76-1.43-2.81-.05-1.11.82-1.35,2.01-.72.96.52,1.89,1.61,2.33,2.67l.15.4Z"/>
        <path class="cls-1" d="M91.18,20.83c.19.8.19,1.17-.29,1.69-1.7,1.18-4.03-1-4.64-2.68-.64-1.5.46-2.64,2.02-2.08,1.15.38,2.28,1.53,2.78,2.69l.14.37Z"/>
        <path class="cls-1" d="M85.44,20.25c.49,2.16-2.05,2.8-3.72,1.62-.82-.48-1.68-1.61-1.88-2.37-.33-1.09.05-1.96,1.1-2.29,1.78-.52,3.74,1.04,4.39,2.68l.11.35Z"/>
        <path class="cls-1" d="M78.85,19.99c.42,2.24-2.25,3.08-4.05,2.01-.92-.5-1.67-1.36-1.96-2.36-.29-1.13.14-1.99,1.16-2.43,1.82-.75,4.13.63,4.75,2.44l.09.35Z"/>
        <path class="cls-1" d="M71.71,20.1c.28,3.97-6.04,3.17-6.72-.08-.26-1.15.24-2,1.24-2.51,1.95-1.05,4.83.28,5.4,2.25l.08.34Z"/>
        <path class="cls-1" d="M63.59,20.49c.32,3.86-6.15,3.7-6.85.32-.25-1.16.23-2.02,1.21-2.59,1.89-1.16,4.97-.1,5.56,1.94l.08.33Z"/>
        <path class="cls-1" d="M55.31,21.28c.34,3.96-6.61,4.06-6.91.36-.12-3.67,6.03-3.77,6.84-.68l.07.32Z"/>
        <path class="cls-1" d="M47.02,22.41c.38,3.79-6.45,4.48-6.81.72-.16-3.52,5.86-4.16,6.74-1.04l.07.32Z"/>
        <path class="cls-1" d="M38.86,23.88c.44,3.44-5.74,4.76-6.5,1.42-.64-3.42,5.3-5.04,6.43-1.74l.07.33Z"/>
        <path class="cls-1" d="M31.04,25.69c.33,3.12-5.15,4.94-6.02,1.69-.71-3.18,4.84-5.25,5.96-2.02l.06.33Z"/>
        <path class="cls-1" d="M23.8,27.62c.48,2.64-4.47,5.36-5.41,2.12-.63-2.79,4.05-5.46,5.34-2.45l.07.33Z"/>
        <path class="cls-1" d="M17.33,29.91c.39,2.3-3.74,5.2-4.64,2.28-.2-1.18.42-2.42,1.37-3.12,1.24-.96,2.9-.72,3.21.5l.06.34Z"/>
        <path class="cls-1" d="M11.8,32.23c.23,1.31-.96,3.06-2.12,3.39-.87.32-1.47-.14-1.58-.88-.23-1.48.6-2.92,1.93-3.53.84-.35,1.47-.1,1.71.7l.07.33Z"/>
        <path class="cls-1" d="M7.45,34.69c.23,1.12-.94,3.18-1.83,3.42.25-.09-.44.17-.36.09-.24,0-.4-.15-.5-.38-.4-1.14.26-2.83,1.19-3.61.58-.52,1.29-.52,1.45.17l.06.31Z"/>
        <path class="cls-1" d="M4.22,37.41c-.08,1.01-.54,2.46-1.26,3.2-.25.19-.22.14-.31.15-.18-.08-.18-.32-.19-.53.04-1.01.45-2.22.97-3.02.35-.51.73-.75.79-.12v.32Z"/>
        <path class="cls-1" d="M2.39,40.06c-.19.84-.58,2.36-.83,3.14-.07.2-.05.11-.05.08.11-.72.84-3.48.95-3.66.03-.06,0,.13-.01.15l-.06.28Z"/>
      </g>
      <g>
        <path class="cls-1" d="M98.71,20.95c-1.03-.81-3.13-3.3-3.8-4.19-.06-.1-.04-.11.07,0,.51.46,3.16,3.29,3.73,4.18v.02Z"/>
        <path class="cls-1" d="M95.89,18.02c.25.42.54,1.02.04,1-1.38-.4-2.43-1.71-3.32-2.85-.38-.58-.56-.81-.66-1.31-.03-.31.28-.24.47-.19,1.13.43,2.64,2.09,3.25,3l.22.35Z"/>
        <path class="cls-1" d="M92.43,16.24c.58,1.18-.1,1.61-1.26,1.15-1.25-.53-2.78-2.01-3.21-3.43-.25-1.2,1-.92,1.76-.49.94.5,1.92,1.46,2.51,2.42l.2.36Z"/>
        <path class="cls-1" d="M87.82,14.92c.19.59.14.47.12.88-1.09,1.94-4.31-.63-4.92-2.11-.78-1.5.58-2.05,1.88-1.52,1.08.39,2.17,1.37,2.76,2.4l.17.35Z"/>
        <path class="cls-1" d="M82.33,14.15c.51,1.95-1.93,2.17-3.42,1.23-.99-.59-1.93-1.63-2.1-2.67-.09-.68.34-1.18,1.03-1.33,1.69-.41,3.58.93,4.35,2.43l.13.33Z"/>
        <path class="cls-1" d="M76.01,13.74c.44,2.05-2.12,2.46-3.71,1.61-1.05-.51-1.98-1.54-2.11-2.6.17-3.01,4.97-1.52,5.7.66l.11.33Z"/>
        <path class="cls-1" d="M69.28,13.74c.4,3.34-5.62,2.73-6.5,0-.4-.86.08-1.95,1.1-2.31,1.83-.86,4.62.19,5.3,1.99l.1.31Z"/>
        <path class="cls-1" d="M61.35,14.12c.39,3.24-5.55,3.28-6.51.46-.39-.86.11-2.02,1.11-2.43,1.75-.94,4.64-.17,5.31,1.66l.09.31Z"/>
        <path class="cls-1" d="M53.4,14.95c.33,3.24-5.47,3.71-6.5.89-.95-3.5,5.48-4.05,6.42-1.2l.09.31Z"/>
        <path class="cls-1" d="M45.43,16.2c.35,3.12-5.29,4.11-6.39,1.32-.98-3.32,5.28-4.48,6.3-1.62l.08.3Z"/>
        <path class="cls-1" d="M37.63,17.86c.35,2.97-5.24,4.44-6.17,1.59-.66-3.13,5.04-4.65,6.09-1.9l.07.31Z"/>
        <path class="cls-1" d="M30.17,19.84c.47,2.83-5.36,4.91-5.76,1.49-.04-2.53,4.5-4.29,5.68-1.79l.08.3Z"/>
        <path class="cls-1" d="M23.26,22.16c.49,2.34-3.99,4.8-5.04,2.27-.77-2.43,3.69-4.98,4.95-2.56l.08.29Z"/>
        <path class="cls-1" d="M17.14,24.7c.27,1.32-1.25,2.96-2.36,3.27-.7.25-1.63.22-1.9-.6-.42-1.49.81-2.89,2.1-3.49.73-.32,1.81-.34,2.09.54l.07.29Z"/>
        <path class="cls-1" d="M12,27.45c.2,1.19-1.12,2.91-2.12,3.29-.63.28-1.24.23-1.37-.44-.2-1.4.78-2.66,1.92-3.37.71-.34,1.21-.42,1.51.24l.06.27Z"/>
        <path class="cls-1" d="M7.9,30.43c0,1.15-1.02,3.06-2.19,3.46-.69,0-.29-1.2-.2-1.55.11-.61,1.82-3.29,2.35-2.17l.04.25Z"/>
        <path class="cls-1" d="M5.01,33.5c-.23,1-1.06,3.11-1.58,3.47-.23-.35,1.49-4.58,1.61-3.68l-.03.21Z"/>
        <path class="cls-1" d="M3.02,37.74c-.09.28-.09.28,0,0h0Z"/>
      </g>
      <g>
        <path class="cls-1" d="M91.93,13.88c.58.65-.35.08-.61-.1-1.15-.8-2.68-2.05-3.52-2.99-.04-.06-.23-.27-.05-.22,1.23.63,3.11,2.25,4.09,3.22l.09.1Z"/>
        <path class="cls-1" d="M88.55,11.64c.84,1.45-1.17.72-2.37-.09-.9-.61-1.87-1.43-2.25-2.31-.15-.44.22-.5.63-.4,1.27.26,3.05,1.58,3.79,2.52l.21.29Z"/>
        <path class="cls-1" d="M84.14,10.09c.1.26.28.62.06.85-.91.79-4.01-.81-4.74-2.02-.5-.65-.63-1.45.49-1.41,1.48.03,3.11,1.05,4.01,2.28l.18.3Z"/>
        <path class="cls-1" d="M78.76,9.09c.44,1.43-1.26,1.52-2.73.96-1.09-.44-2.28-1.37-2.55-2.43-.09-.53.31-.84.83-.93,1.56-.26,3.43.78,4.3,2.11l.15.3Z"/>
        <path class="cls-1" d="M72.8,8.58c.23.68-.15,1.16-.8,1.38-1.45.65-3.98-.56-4.53-2-.34-.77.07-1.42.95-1.57,1.54-.38,3.46.5,4.26,1.89l.13.3Z"/>
        <path class="cls-1" d="M66.56,8.48c.49,2.77-5.39,2.16-6.25-.06-.39-.75.09-1.55.99-1.83,1.71-.63,4.19-.03,5.14,1.62l.12.28Z"/>
        <path class="cls-1" d="M58.91,8.86c.25,2.79-5.43,2.68-6.23.28-.64-2.87,5.32-2.76,6.13-.56l.1.28Z"/>
        <path class="cls-1" d="M51.32,9.73c.26,2.76-5.31,3.18-6.21.76-.59-2.84,5.16-3.26,6.11-1.04l.1.28Z"/>
        <path class="cls-1" d="M43.73,11.07c.32,2.7-5.09,3.65-6.08,1.26-.58-2.75,4.87-3.73,5.99-1.53l.1.27Z"/>
        <path class="cls-1" d="M36.34,12.88c.28,2.53-4.77,3.97-5.78,1.68-.63-2.58,4.55-4.13,5.7-1.95l.08.27Z"/>
        <path class="cls-1" d="M29.32,15.08c.41,2.22-4.3,4.32-5.37,2.06-.5-2.26,4.07-4.28,5.28-2.32l.09.26Z"/>
        <path class="cls-1" d="M22.84,17.64c.38,1.81-3.51,4.35-4.67,2.57-.78-2.01,3.5-4.63,4.59-2.82l.08.25Z"/>
        <path class="cls-1" d="M17.16,20.48c.13,1.41-1.51,2.89-2.87,3.22-.46.12-.99-.06-1.09-.44-.29-1.32.94-2.43,1.99-3.08.82-.39,1.47-.62,1.9.06l.07.24Z"/>
        <path class="cls-1" d="M12.38,23.59c.05,1.24-1.49,3.01-2.67,3.42-.43.07-.56-.06-.58-.56.11-1.14,1.02-2.19,1.92-2.9.57-.39,1.06-.65,1.29-.17l.04.21Z"/>
        <path class="cls-1" d="M8.64,26.94c-.17,1.09-1.28,2.78-2.1,3.46-.08.03-.21.11-.22-.04,0-.2-.03.12.02-.28.18-.86,1.09-2.32,1.57-2.91.15-.13.58-.78.73-.42v.18Z"/>
        <path class="cls-1" d="M6.01,30.62c-.29.71-.87,1.94-1.23,2.59-.05-.02,1.2-2.64,1.23-2.64v.04Z"/>
      </g>
      <g>
        <path class="cls-1" d="M87.46,10.31c-.4-.26-1.99-1.33-2.16-1.45.6.39,1.58,1.05,2.13,1.43l.03.02Z"/>
        <path class="cls-1" d="M84.34,8.31c.12.12.15.2-.02.18-.77-.12-4.6-2.22-4.85-2.77,1.34.23,3.7,1.74,4.8,2.53l.07.06Z"/>
        <path class="cls-1" d="M80.11,6.36c.6.86-.71.66-2.2.14-1.07-.43-2.39-.98-2.92-1.88-.08-.39.34-.33.71-.3,1.3.17,3.29,1,4.2,1.83l.2.22Z"/>
        <path class="cls-1" d="M75.13,5.23c.31,1-1.46.91-2.72.54-1.03-.33-2.29-1.03-2.68-1.95-.07-.52.51-.49.97-.5,1.4.03,3.26.62,4.28,1.68l.15.23Z"/>
        <path class="cls-1" d="M69.36,4.62c.39.73-.65,1.2-2.11.99-1.15-.2-2.49-.77-2.99-1.87-.15-.57.4-.76.92-.85,1.38-.2,3.11.38,4.03,1.47l.16.25Z"/>
        <path class="cls-1" d="M63.72,4.44c.24,2.02-5.47,1.6-6.23-.16-.28-.67.28-1.02.98-1.2,1.58-.39,4.01-.15,5.14,1.15l.11.22Z"/>
        <path class="cls-1" d="M56.31,4.83c.26,1.97-5.03,2.19-5.88.27-.29-.72.3-1.13,1.04-1.38,1.48-.49,3.76-.51,4.74.88l.1.23Z"/>
        <path class="cls-1" d="M49.15,5.75c.1,2.14-5.09,2.51-5.89.77-.45-2.12,5.04-2.66,5.8-1l.08.23Z"/>
        <path class="cls-1" d="M42.02,7.16c.37,1.87-4.74,3.16-5.69,1.31-.47-2.13,4.57-3.08,5.59-1.54l.1.23Z"/>
        <path class="cls-1" d="M35.16,9.07c.46,1.67-4.4,3.55-5.46,1.79-.57-1.95,4.3-3.44,5.36-2l.1.21Z"/>
        <path class="cls-1" d="M28.54,11.49c.29,1.66-3.93,3.7-4.95,2.18-.5-1.91,4.14-3.68,4.86-2.39l.09.2Z"/>
        <path class="cls-1" d="M22.62,14.26c.35,1.33-4.74,4.44-4.4,2.01.29-1.11,3.43-3.41,4.35-2.21l.05.2Z"/>
        <path class="cls-1" d="M17.31,17.39c.01.99-1.36,2.18-2.25,2.72-.57.32-.51.27-.74.36-.27.1-.61.13-.71-.14-.1-1.14,1.48-2.39,2.53-3.01.32-.16.94-.44,1.12-.09l.05.16Z"/>
        <path class="cls-1" d="M13,20.81c.23.43-3.72,4.85-2.79,2.76.45-.84,1.22-1.75,1.99-2.5.34-.29.69-.65.8-.39v.14Z"/>
        <path class="cls-1" d="M9.29,25.03s-1.03,1.64-1.11,1.72c.32-.52.8-1.26,1.12-1.74v.02Z"/>
      </g>
      <g>
        <path class="cls-1" d="M78.39,5.11c-.12-.05-.89-.4-.83-.37,0,0,.69.31.83.37h0Z"/>
        <path class="cls-1" d="M75.96,4.11c-1.11-.06-4.57-1.37-5.18-1.78,1.46.26,3.85,1.13,5.15,1.75l.03.03Z"/>
        <path class="cls-1" d="M71.11,2.58c.16.14.18.25,0,.32-.66.3-4.77-.61-5.22-1.34-.06-.27.29-.19.62-.2,1.22.06,3.53.53,4.53,1.16l.09.06Z"/>
        <path class="cls-1" d="M65.23,1.77c.21.17-.07.34-.56.51-.56.2-1.56.23-2.26.12-1.54-.16-2.61-.88-2.35-1.01.38.37-.06.59-.49.1.37-.17,1.1-.5,1.46-.66,1.16.04,3.35.42,4.15.91l.05.04Z"/>
        <path class="cls-1" d="M61.17,1.73c.1,1.13-5.13,1.14-6.15-.02-.11-.19,0,.07-.09-.22l.04-.14c1.27-.93,3.7-.48,5.07-.23,1.36.5.65.27.94.4.07.05.12.1.16.15l.03.05Z"/>
        <path class="cls-1" d="M53.58,2.1c.32,1.31-4.71,1.53-5.49.36-.15-.31-.04-.3.07-.49,1.3-.84,4.22-1,5.36.05l.05.09Z"/>
        <path class="cls-1" d="M46.97,3.01c.39,1.35-4.82,2.03-5.55.89-.51-1.36,4.86-1.93,5.49-.97l.06.08Z"/>
        <path class="cls-1" d="M40.32,4.57c.18,1.46-4.65,2.41-5.37,1.34-.32-1.46,4.61-2.42,5.33-1.42l.05.08Z"/>
        <path class="cls-1" d="M33.96,6.58c.18,1.22-4.25,2.83-5.02,1.81-.29-1.19,4.01-2.69,4.93-1.94l.09.13Z"/>
        <path class="cls-1" d="M27.94,9.08c0,1.14-3.65,3.07-4.56,2.34-.42-1.12,3.78-3.2,4.5-2.48l.06.13Z"/>
        <path class="cls-1" d="M22.44,12.09c-.34,1.13-2.2,2.17-3.31,2.7-.3.1-.74.25-.72-.12.07-.71,3.49-3.3,4.01-2.7l.02.12Z"/>
        <path class="cls-1" d="M17.58,15.47c-.23.61-1.25,1.49-1.83,2.07-.61.51-.99.99-1.49,1.11-.07-.21.24-.47.59-.89.88-.87,1.96-2.2,2.72-2.36l.02.08Z"/>
        <path class="cls-1" d="M13.76,19.09c-.62.82-1.85,2.36-2.53,3.15.04-.13,2.06-2.72,2.58-3.23l-.05.08Z"/>
      </g>
      <g>
        <path class="cls-1" d="M67.07,1.36c-1.04-.16-3.01-.5-4.09-.71.46.05,3.36.55,4.09.7h0Z"/>
        <path class="cls-1" d="M62.24.58c.08.16-.62.08-1.69.04-1.14-.1-2.88-.17-3.37-.42,1.37-.02,3.7.12,4.99.36l.06.02Z"/>
        <path class="cls-1" d="M57.5.33c.49.34-2.13.33-2.85.34-7.24-.24.99-.84,2.77-.36l.08.02Z"/>
        <path class="cls-1" d="M51.15.7c.1.1-.03.16-.15.22-.76.34-3.58.55-4.49.47-3.29-.39,4.17-1.15,4.59-.72l.05.03Z"/>
        <path class="cls-1" d="M44.89,1.68c.06.35-.54.45-1.54.75-1.16.24-2.92.62-3.74.28-.11-.19.13-.26.57-.44,1.09-.34,3.57-.94,4.65-.62l.05.03Z"/>
        <path class="cls-1" d="M38.69,3.23c.06.37-.51.54-1.44.94-1.1.37-2.69.9-3.52.69-.16-.16.06-.26.46-.5,1.01-.48,3.38-1.38,4.46-1.15l.05.03Z"/>
        <path class="cls-1" d="M32.84,5.31c.15.61-4.08,2.31-4.49,2.19-.86-.33,4.1-2.45,4.44-2.21l.05.02Z"/>
        <path class="cls-1" d="M27.33,7.97c.02.25-.81.75-1.19,1.03-.75.5-1.58,1-2.16,1.3-.53.29-.8.3-.78.27.19-.41.88-.74,1.43-1.16.73-.46,2-1.36,2.67-1.46h.03Z"/>
        <path class="cls-1" d="M22.4,11.15c-.72.62-1.85,1.55-2.73,2.16.48-.49,2.07-1.7,2.74-2.18v.02Z"/>
      </g>
      <g>
        <path class="cls-1" d="M47.98.64c-.71.12-2.04.34-2.78.45-.34.05.14-.03,1.11-.18.83-.14,1.65-.27,1.67-.27h0Z"/>
        <path class="cls-1" d="M42.47,1.69c-.07.02-.84.23-1.21.32-.7.18,1.05-.28,1.23-.33h-.02Z"/>
        <path class="cls-1" d="M31.29,5.7s-.68.35-.67.34c.22-.11.48-.24.7-.35l-.03.02Z"/>
      </g>
    </g>
  </g>
</svg>