<?xml version="1.0" encoding="UTF-8"?>
<svg id="Layer_2" xmlns="http://www.w3.org/2000/svg" viewBox="0 0 110.85 110.82">
  <defs>
    <style>
      .cls-1 {
        fill: #ed1c24;
      }

      .cls-1, .cls-2, .cls-3, .cls-4 {
        stroke: #000;
        stroke-miterlimit: 10;
        stroke-width: .25px;
      }

      .cls-2 {
        fill: none;
      }

      .cls-3 {
        fill: #21409a;
      }

      .cls-4 {
        fill: #2e3192;
      }
    </style>
  </defs>
  <g id="Layer_1-2" data-name="Layer_1">
    <path class="cls-2" d="M60.24,1.66c.26,0-.25-.06-.1-.01h.1Z"/>
    <path class="cls-2" d="M60.14,1.65c-.11-.02.07-.03.14-.01.09.02-.05.03-.04.02h-.1Z"/>
    <path class="cls-2" d="M53.44,78.47c.26,0-.25-.06-.1-.01h.1Z"/>
    <g>
      <path class="cls-1" d="M73.52,107.68c-.09.03,1.6-.58,1.66-.59.14-.04-1.64.59-1.66.59h0Z"/>
      <path class="cls-1" d="M64.24,109.99c1.12-.49,4.63-1.2,6.08-1.46.86-.12.58.07-1.28.53-1.35.31-3.66.86-4.79.94h-.01Z"/>
      <path class="cls-1" d="M64,109.94c-1.63.8-10.52,1.13-3.29-.17.98-.13,3.76-.46,3.42.09l-.13.08Z"/>
      <path class="cls-1" d="M57.62,110.38c-.51.64-11.77.23-6.51-.61,1.65-.19,4.75-.17,6.1.17.3.09.64.16.51.38l-.1.06Z"/>
      <path class="cls-1" d="M48.54,109.84c-.54.56-9.96-.92-5.53-1.29,1.45-.02,4.07.32,5.19.78.21.09.58.26.44.45l-.1.06Z"/>
      <path class="cls-1" d="M40.47,108.31c-.2.45-8.2-1.88-5.61-1.96.95,0,4.42.98,5.28,1.5.14.09.47.26.4.41l-.07.05Z"/>
      <path class="cls-1" d="M33.24,105.98c-1.29-.28-4.37-2-5.44-2.68.34-.1,1.55.55,2.05.76,1.28.65,2.52,1.15,3.38,1.88v.05Z"/>
      <path class="cls-1" d="M25.68,101.56c-.29-.42-2.38-1.14-2.55-1.27.63.58,1.66,1.17,2.51,1.28l.03-.02Z"/>
    </g>
    <g>
      <path class="cls-1" d="M81.18,104.4c1.65-1.12,4.15-2.63,5.78-3.52-1.15.89-4.34,2.78-5.77,3.52h-.01Z"/>
      <path class="cls-1" d="M81.58,104.07c-1.49,1.14-4.12,2.49-6.05,2.74-.36-.02.1-.46.1-.46,1.5-1.35,3.57-2.39,5.48-2.92.55-.15,1.3-.15.67.46l-.2.18Z"/>
      <path class="cls-1" d="M75.52,106.15c-1.07,1.29-4.17,2.25-5.84,2.22-1.37.02-1.14-.77-.4-1.39.87-1.09,6.98-3.08,6.37-1.03l-.13.2Z"/>
      <path class="cls-1" d="M68.18,107.43c-.94,1.41-4.03,2.02-5.63,1.74-.65-.07-1.17-.44-.99-.99.48-1.97,7.05-3.22,6.72-.96l-.1.21Z"/>
      <path class="cls-1" d="M60.72,108c-.73,1.63-8.56,2.12-8.68-.08.5-2.07,8.56-2.36,8.74-.09l-.05.17Z"/>
      <path class="cls-1" d="M50.56,107.55c-.95,1.68-7.13,1.37-7.4-.74.68-2.2,7.56-1.51,7.47.54l-.07.2Z"/>
      <path class="cls-1" d="M41.61,106.34c-1.05,1.48-6.74.38-6.88-1.54.52-1.95,7.15-.62,6.96,1.35l-.07.18Z"/>
      <path class="cls-1" d="M33.34,104.25c-.69,1.29-7.3-1.15-5.94-2.57,1.2-.86,6.1.88,5.99,2.42l-.05.15Z"/>
      <path class="cls-1" d="M26.03,101.42c-.63.79-5.49-2.43-5.24-3.22.34-.41,1.2.1,1.67.26,1.18.56,2.07,1.11,2.92,1.86.33.3.65.71.67.97v.12Z"/>
      <path class="cls-1" d="M20.07,97.86c-.77-.39-3.45-3-4.02-3.69,1.37.99,2.91,2.42,3.98,3.61l.04.08Z"/>
    </g>
    <g>
      <path class="cls-1" d="M91.18,97.68c1.4-1.55,3.42-3.4,4.85-4.71.17-.13.11-.07.09-.02-1.13,1.23-3.54,3.6-4.92,4.73h-.01Z"/>
      <path class="cls-1" d="M91.9,96.9c-.96,1.28-3.85,3.7-5.12,3.77-.65-.09.21-1.06.37-1.34,1.17-1.55,3.41-3.38,4.69-3.72.96-.29.71.44.29,1l-.22.29Z"/>
      <path class="cls-1" d="M86.76,99.37c-.94,1.64-3.29,3.36-5.29,3.5-2.88-.02.6-3.61,1.67-4.12,1.12-.84,4.58-2.02,3.76.33l-.14.29Z"/>
      <path class="cls-1" d="M79.91,101.25c-.71,1.89-3.92,3.5-5.91,3.04-.79-.16-1.27-.72-1.17-1.49.35-1.56,1.76-2.49,3.2-3.1,2.05-.78,4.13-.57,3.96,1.26l-.08.29Z"/>
      <path class="cls-1" d="M71.69,102.5c-.55,2.41-6.72,4.36-6.93.88.22-3.1,7.05-4.72,6.99-1.18l-.06.3Z"/>
      <path class="cls-1" d="M63,103.08c-.74,2.82-8.46,3.6-8.79.15.59-3.49,8.58-3.72,8.83-.4l-.04.25Z"/>
      <path class="cls-1" d="M52.52,102.91c-.98,2.78-7.85,2.7-8.11-.59.61-3.43,8.24-2.89,8.17.33l-.05.26Z"/>
      <path class="cls-1" d="M42.73,102c-1.13,2.71-7.51,1.76-7.65-1.32.76-3.33,7.88-1.88,7.7,1.06l-.05.26Z"/>
      <path class="cls-1" d="M33.56,100.4c-1.24,2.55-6.99.51-6.84-2.11.9-2.96,7.11-.76,6.9,1.85l-.06.26Z"/>
      <path class="cls-1" d="M25.31,98.08c-.26.83-1.44.72-2.15.51-1.6-.49-3.71-1.79-3.6-3.49.21-.84,1.27-.81,1.99-.65,1.72.42,3.75,1.51,3.81,3.39l-.05.24Z"/>
      <path class="cls-1" d="M18.65,95.09c-.06.66-1.28.06-1.41-.03-1.33-.79-2.86-2.09-3.2-3.44-.09-.72.66-.48,1.07-.32,1.49.73,3.14,2.04,3.55,3.59v.19Z"/>
      <path class="cls-1" d="M13.68,91.47c.04.09.05.13.01.12-.9-.82-2.43-2.74-3.02-3.81,1.01.84,2.19,2.49,2.91,3.52l.1.17Z"/>
    </g>
    <g>
      <path class="cls-1" d="M99.83,88.52c.68-1.02,1.55-2.26,2.2-3.17-.02.1-1.82,2.68-2.18,3.15h-.01Z"/>
      <path class="cls-1" d="M100.27,87.95c-1.08,1.68-2.31,3.45-3.72,4.34-.71.27-.06-.94.08-1.24.64-1.22,1.21-2.03,2.02-3.06,1.18-1.58,3.38-3.14,1.85-.44l-.23.4Z"/>
      <path class="cls-1" d="M96.78,90.46c-.65,1.62-2.32,3.73-4.05,4.23-1.87.47-1.26-1.73-.75-2.7.8-1.61,2.52-3.62,4.2-3.77,1.16-.09.95,1.33.74,1.86l-.14.39Z"/>
      <path class="cls-1" d="M91.19,92.58c-.38,1.53-2.11,3.38-3.66,3.88-2.48.91-3.52-.7-2.77-2.63.74-2,2.75-3.9,4.94-3.85,1.25.04,1.79,1.13,1.56,2.22l-.09.37Z"/>
      <path class="cls-1" d="M83.65,94.25c-.45,3.23-7.31,6.03-7.51,1.47.04-3.8,7.53-6.69,7.56-1.83l-.06.36Z"/>
      <path class="cls-1" d="M74.73,95.38c-.55,3.82-8.15,5.46-7.62.38.58-3.8,7.69-5.32,7.67-.73l-.05.36Z"/>
      <path class="cls-1" d="M65.07,96.05c-.68,4.07-9.52,4.67-9.03-.27.88-4.03,8.92-4.39,9.06-.05l-.03.32Z"/>
      <path class="cls-1" d="M54.2,96.16c-.94,3.16-6.44,3.69-8.29,1.04-.59-.82-.62-1.93-.11-2.79,1.85-3.26,8.83-2.31,8.46,1.45l-.06.31Z"/>
      <path class="cls-1" d="M43.66,95.47c-1.03,3.85-8.16,2.82-8.31-.91.31-4.35,8.39-3.47,8.35.59l-.04.31Z"/>
      <path class="cls-1" d="M33.71,94.33c-1.1,3.67-7.57,1.74-7.5-1.7.66-4.09,7.7-2.04,7.53,1.39l-.04.32Z"/>
      <path class="cls-1" d="M24.74,92.64c-1.19,3.25-6.49.33-6.32-2.37.08-.73.25-.98.76-1.38,2.19-1.25,5.68,1.08,5.6,3.44l-.04.31Z"/>
      <path class="cls-1" d="M17.37,90.34c-.1,1.34-1.84.97-2.52.54-1.38-.76-2.71-2.34-2.46-3.91.23-.93,1.22-.81,1.85-.6,1.55.53,3.04,2,3.14,3.68v.3Z"/>
      <path class="cls-1" d="M11.73,87.53c.09.72-.62.39-.8.24-1.14-.82-2.12-2.23-2.59-3.43-.14-.46-.26-.7-.11-1.01.1-.15.39-.03.55.05,1.29.76,2.5,2.41,2.91,3.89l.04.26Z"/>
      <path class="cls-1" d="M8.24,84.15c.35.82-1.64-2.71-1.84-3.11-.43-.81-.39-.81,0-.15.51.85,1.25,2.15,1.73,3.05l.11.21Z"/>
      <path class="cls-1" d="M7.13,74.17c-.03.13.05,1.17.08,1.1.05-.02.02-.93-.06-1.09h-.02Z"/>
    </g>
    <g>
      <path class="cls-1" d="M103.74,82.43c.03-.59.72-1.89.9-2.34.66-1.42,1.46-3.15,2.17-4.42.18-.31.12-.21.24-.38.04-.05.06-.06.06,0-.75,2.05-2.31,5.52-3.35,7.14h-.02Z"/>
      <path class="cls-1" d="M104.41,80.36c-.57,1.64-1.54,4-3.09,4.72-1.33.18-.45-2.38-.23-3.09.48-1.4,1.58-3.63,2.76-4.2,1.3-.55.82,1.67.69,2.1l-.13.47Z"/>
      <path class="cls-1" d="M100.63,82.26c-.35,1.86-1.77,4.19-3.65,4.7-1.06.3-1.77-.58-1.79-1.65-.07-1.58.56-3.24,1.5-4.47,1.86-2.38,4.44-2.03,4,.97l-.07.45Z"/>
      <path class="cls-1" d="M94.53,83.97c-.19,1.79-1.83,3.96-3.54,4.43-2.29.79-3.63-1.23-3.2-3.31.36-3.92,6.65-7.06,6.78-1.55l-.04.42Z"/>
      <path class="cls-1" d="M86.53,85.36c-.31,4.25-7.6,6.84-7.88,1.27-.02-4.86,7.69-7.44,7.91-1.66l-.03.39Z"/>
      <path class="cls-1" d="M77.1,86.39c-.42,4.7-8.14,6.16-8.46.83-.04-5.17,8.31-6.84,8.48-1.21l-.02.38Z"/>
      <path class="cls-1" d="M66.67,87.12c-.59,4.83-9.19,5.51-9.38.26.13-5.29,9.23-6.1,9.4-.61l-.03.35Z"/>
      <path class="cls-1" d="M55.38,87.35c-.72,5-9.7,4.68-9.23-.74.78-4.89,9.22-4.56,9.25.38l-.03.35Z"/>
      <path class="cls-1" d="M44.27,87.11c-.72,4.6-8.73,3.99-8.85-.7.19-5.07,8.87-4.56,8.87.35l-.03.35Z"/>
      <path class="cls-1" d="M33.72,86.43c-.74,4.5-8,2.95-8.02-1.18.33-4.99,8.04-3.4,8.04.83l-.02.35Z"/>
      <path class="cls-1" d="M24.18,85.37c-.95,4.3-7,1.63-6.79-1.78.04-1.35.85-2.27,2.15-2.48,2.21-.41,4.73,1.77,4.66,3.9l-.02.36Z"/>
      <path class="cls-1" d="M16.13,83.88c-.14,1.34-1.41,1.89-2.48,1.5-1.57-.47-2.87-2.36-2.82-3.83-.03-1.73,1.54-2.37,3.03-1.58,1.24.6,2.32,2.11,2.3,3.55l-.03.36Z"/>
      <path class="cls-1" d="M10.13,81.96c0,.75-.42,1.26-1.12,1.07-1.48-.49-2.39-2.24-2.66-3.64-.14-.76-.08-1.99,1.05-1.65,1.47.45,2.57,2.3,2.72,3.85v.37Z"/>
      <path class="cls-1" d="M6.17,79.48c.21.97-.22.63-.53.09-.5-.73-1.83-3.85-1.65-4.2.98.67,1.74,2.75,2.08,3.77l.09.34Z"/>
    </g>
    <g>
      <path class="cls-1" d="M108.91,70.17c-.41,1.47-.87,3.65-1.65,4.43-.49.04.07-2.49.09-2.63.33-1.51.58-2.46,1.04-3.72,1.32-3.06.97.11.65,1.34l-.13.59Z"/>
      <path class="cls-1" d="M107.24,71.63c-.21,1.5-1.37,4.88-2.82,4.43-.72-.32-.76-1.69-.72-2.5.12-1.45.34-2.37.83-3.6,1.69-3.6,3.27-2,2.78,1.11l-.08.55Z"/>
      <path class="cls-1" d="M103.14,72.85c-.03,2-2.13,5.48-4.01,4.63-1.06-.38-1.43-1.94-1.39-3.04.03-1.98.91-4.29,2.5-5.21,2-1.19,3.14,1.37,2.94,3.11l-.04.51Z"/>
      <path class="cls-1" d="M96.75,74.04c-.13,1.92-1.47,4.13-3.27,4.7-2.63.88-4.03-2.23-3.58-4.36.62-4.89,6.71-6.53,6.87-.79l-.02.45Z"/>
      <path class="cls-1" d="M88.4,75.09c-.32,5.2-7.72,7.12-8.13.94-.05-5.6,7.75-7.66,8.14-1.35v.42Z"/>
      <path class="cls-1" d="M78.59,75.95c-.35,5.65-8.61,6.64-8.99.71-.19-5.76,8.52-7.41,8.99-1.11v.4Z"/>
      <path class="cls-1" d="M67.67,76.64c-.44,5.68-9.24,6.25-9.64.4-.04-6.05,9.22-6.78,9.65-.78v.38Z"/>
      <path class="cls-1" d="M56.08,77.08c-.5,5.6-9.3,5.64-9.64.08-.09-5.92,9.33-6.35,9.64-.46v.37Z"/>
      <path class="cls-1" d="M44.52,77.22c-.54,5.52-9.04,4.95-9.24-.26,0-5.72,8.92-5.67,9.25-.11v.37Z"/>
      <path class="cls-1" d="M33.52,77.07c-.5,5.15-8.19,4.35-8.4-.62.08-5.44,8.12-4.8,8.4.24v.38Z"/>
      <path class="cls-1" d="M23.56,76.63c-.66,5.19-7.47,3.04-7.14-1.38.61-4.95,7.02-3.04,7.14.99v.39Z"/>
      <path class="cls-1" d="M15.13,75.97c-.75,4.59-5.65,1.88-5.6-1.45.14-4.98,5.65-2.57,5.61,1.04v.41Z"/>
      <path class="cls-1" d="M8.67,74.92c.07,1.27-.81,2.36-1.94,1.73-1.2-.65-1.82-2.21-1.96-3.55-.18-1.54.56-2.92,2.1-1.95.99.59,1.67,2.11,1.77,3.32l.02.45Z"/>
      <path class="cls-1" d="M4.48,73.61c.15,1.06-.25,1.85-.94.76-.61-.84-1.67-4.35-.88-4.73.11,0,.21.05.3.11.79.63,1.31,2.56,1.46,3.4l.06.46Z"/>
    </g>
    <g>
      <path class="cls-1" d="M110.5,61.33c-.08,1.72-.9,5.91-1.37,3.02-.17-1.84.01-4.3.43-6.09.99-3.3,1.13,1.42.99,2.44l-.04.63Z"/>
      <path class="cls-1" d="M108.69,61.8c-.07,1.17-.32,2.35-.65,3.12-.92,2.12-2.17,1.67-2.6-.06-.27-.91-.27-2.67-.15-3.5.48-4.66,3.48-5.31,3.41-.13l-.02.58Z"/>
      <path class="cls-1" d="M104.4,62.51c-.13,1.81-.83,3.91-2.42,4.55-2.49.73-3.23-3.1-2.91-4.86.51-5.19,5.27-5.95,5.35-.19l-.02.51Z"/>
      <path class="cls-1" d="M97.82,63.11c-.1,5.68-6.58,7.06-7.01.75-.19-5.92,6.48-7.61,7-1.22v.47Z"/>
      <path class="cls-1" d="M89.27,63.83c-.21,5.93-7.86,7.03-8.34.63-.13-6.17,7.75-7.55,8.33-1.05v.42Z"/>
      <path class="cls-1" d="M79.18,64.54c-.19,6.03-8.74,6.93-9.28.58-.28-6.27,8.66-7.57,9.28-.99v.4Z"/>
      <path class="cls-1" d="M67.96,65.2c-.19,6.1-9.29,6.8-9.81.48-.19-6.29,9.13-7.28,9.8-.87v.39Z"/>
      <path class="cls-1" d="M56.17,65.79c-.12,6.04-9.33,6.46-9.85.4-.28-6.21,9.16-6.97,9.84-.78l.02.38Z"/>
      <path class="cls-1" d="M44.36,66.32c-.17,5.82-8.98,6.01-9.44.21-.18-6.02,8.77-6.52,9.43-.6v.38Z"/>
      <path class="cls-1" d="M33.1,66.72c-.27,5.55-8.18,5.44-8.59.02-.15-5.73,7.99-5.95,8.58-.41v.39Z"/>
      <path class="cls-1" d="M22.9,66.97c-.27,5.15-6.96,4.68-7.32-.17-.15-5.55,6.87-5.23,7.31-.24v.41Z"/>
      <path class="cls-1" d="M14.25,67.06c-.37,4.88-5.56,3.64-5.74-.44-.15-5.14,5.44-4.39,5.73,0v.44Z"/>
      <path class="cls-1" d="M7.58,66.97c-.23,4.31-3.78,2.67-3.94-.63-.25-1.65.62-4.09,2.47-2.87.88.58,1.37,1.93,1.45,3.02l.02.49Z"/>
      <path class="cls-1" d="M3.17,66.51c.19,1.18-.3,3.44-1.31,1.65-.5-.96-.71-2.46-.7-3.43-.04-.66.28-2.01,1.07-1.18.44.34.87,2.06.88,2.43l.06.54Z"/>
      <path class="cls-1" d="M1.25,65.98c.27,1.56.28,1.86.13,1.19-.24-1.07-.55-2.77-.7-3.75-.22-1.71.37,1.39.46,1.96l.11.6Z"/>
    </g>
    <g>
      <path class="cls-4" d="M110.66,51.89c-.05-.51-.27-3.17-.28-3.32.09.89.22,2.45.28,3.29v.04Z"/>
      <path class="cls-4" d="M110.69,51.87c.16,1.61-.29,5.64-1.17,2.48-.26-1.04-.42-3.19-.4-4.18-.03-.76.15-3.37.86-2.49.46.77.6,2.49.68,3.55l.03.64Z"/>
      <path class="cls-4" d="M108.8,51.63c.01,6.02-3.43,5.05-3.62-.21-.33-5.33,3.14-5.96,3.59-.38l.03.59Z"/>
      <path class="cls-4" d="M104.39,51.62c-.25,7.2-5.97,4.84-5.47-1.04.03-1.79,1.37-4.59,3.42-3.51,1.26.62,1.98,2.85,2.03,4.03l.03.52Z"/>
      <path class="cls-4" d="M97.69,51.74c.08,6.39-6.72,6.4-7.11.18-.31-6.1,6.42-6.69,7.08-.64l.03.46Z"/>
      <path class="cls-4" d="M89.04,52.14c-.11,6.77-8.3,6.35-8.44-.08.1-6.22,7.69-6.45,8.41-.35l.03.43Z"/>
      <path class="cls-4" d="M78.83,52.66c-.11,6.73-9.17,6.63-9.37.07.07-6.26,8.58-6.63,9.35-.47l.03.41Z"/>
      <path class="cls-4" d="M67.5,53.33c.01,6.31-9.14,6.9-9.85.57-.39-6.46,8.95-7.34,9.83-.96l.03.39Z"/>
      <path class="cls-4" d="M55.66,54.11c0,6.19-9.19,6.81-9.9.62-.38-6.31,8.99-7.27,9.87-1l.03.39Z"/>
      <path class="cls-4" d="M43.77,54.92c.08,6-8.85,6.7-9.48.64-.33-5.93,8.54-6.92,9.45-1.02l.03.38Z"/>
      <path class="cls-4" d="M32.42,55.82c.03,5.58-7.91,6.38-8.6.68-.36-5.77,7.76-6.67,8.57-1.08l.03.39Z"/>
      <path class="cls-4" d="M22.16,56.67c.09,5.33-6.71,5.88-7.31.75-.53-5.23,6.4-6.58,7.27-1.17l.04.41Z"/>
      <path class="cls-4" d="M13.51,57.54c.08,4.76-5.19,5.41-5.74.72-.46-4.81,4.96-6.06,5.7-1.17l.04.45Z"/>
      <path class="cls-4" d="M6.82,58.39c.15,1.57-.91,4.01-2.55,3.3-1.58-.87-1.65-3.62-1.12-5.11,1.18-2.96,3.56-1.01,3.64,1.32l.03.49Z"/>
      <path class="cls-4" d="M2.39,58.97c.27,2.51-1.26,4.81-1.85,1.24-.13-1-.18-1.99.04-3.04.16-.78.65-1.24,1.15-.68.35.27.64,1.73.62,1.9l.05.58Z"/>
      <path class="cls-4" d="M.45,59.59c.07,1.03.08,1.81.06,2.07-.02.28-.05.28-.11-.22-.07-.56-.17-1.97-.2-2.75-.01-.28-.09-1.74.04-1.3.07.3.14,1.13.17,1.55l.04.64Z"/>
    </g>
    <g>
      <path class="cls-4" d="M109.75,44.53c-.06-.3-.45-2.06-.45-2.09.07.34.43,1.97.45,2.07v.02Z"/>
      <path class="cls-4" d="M109.43,42.88c.22,1.04.59,4.01-.46,2.57-.61-.96-1.11-3.15-1.3-4.12-.19-1.05-.15-.88-.24-1.61-.04-.54-.14-1.55.22-1.7.3.05.36.3.58.7.43.88.85,2.48,1.08,3.58l.11.57Z"/>
      <path class="cls-4" d="M107.52,41.88c.15,1.54,0,3.8-1.57,3.38-1.41-.67-1.93-2.62-2.23-4.14-.17-1.27-.52-3.9,1.05-4.24,1.74.21,2.36,2.85,2.67,4.44l.08.57Z"/>
      <path class="cls-4" d="M103.09,41.03c.16,6.5-5.35,4.17-5.69-.82-.31-1.83.66-4.88,2.98-3.95,1.45.5,2.54,2.93,2.66,4.27l.06.5Z"/>
      <path class="cls-4" d="M96.37,40.62c.06,7.01-7.33,4.72-7.25-1.04.3-6.19,6.68-4.23,7.2.59l.05.45Z"/>
      <path class="cls-4" d="M87.72,40.61c-.07,7.04-8.49,5.32-8.45-.6.21-6.07,7.71-5.25,8.4.18l.04.42Z"/>
      <path class="cls-4" d="M77.55,40.95c.15,6.28-8.52,6.35-9.3.31-.51-6.44,8.34-6.74,9.26-.71l.04.4Z"/>
      <path class="cls-4" d="M66.33,41.58c.17,6.24-8.98,6.69-9.77.6-.46-6.29,8.7-7.02,9.73-.99l.04.38Z"/>
      <path class="cls-4" d="M54.54,42.51c.27,6.02-8.9,6.86-9.79.94-.65-6.11,8.66-7.29,9.75-1.32l.04.38Z"/>
      <path class="cls-4" d="M42.78,43.73c.29,5.66-8.5,6.9-9.36,1.09-.55-5.72,8.2-7.17,9.31-1.47l.04.38Z"/>
      <path class="cls-4" d="M31.59,45.12c.35,5.27-7.61,6.65-8.47,1.35-.61-5.51,7.26-7.12,8.42-1.73l.05.38Z"/>
      <path class="cls-4" d="M21.48,46.63c.35,4.74-6.38,6.49-7.19,1.46-.58-4.81,6.05-6.8,7.14-1.86l.05.4Z"/>
      <path class="cls-4" d="M12.94,48.21c.37,3.97-4.82,6.27-5.57,1.67-.66-4.06,4.36-7.05,5.52-2.1l.05.43Z"/>
      <path class="cls-4" d="M6.35,49.78c.23,1.49-.88,4.3-2.39,4.02-.86-.13-1.26-1.34-1.33-2.16-.12-1.47.22-2.99,1.22-3.9,1.24-1.05,2.33.35,2.45,1.58l.05.46Z"/>
      <path class="cls-4" d="M2.04,51.58c-.05,1.17-.11,2.71-.92,3.46-.17.07.06,0-.2.05-.37-.07-.46-.79-.52-1.23-.06-.68-.05-1.07-.01-1.77.06-.84.28-2.12.71-2.56.74-.56.88,1.03.92,1.55l.02.49Z"/>
      <path class="cls-4" d="M.25,53.1c0,.58-.04,1.53-.07,2.05-.02.28-.04.43-.05.27,0-.51,0-2.78.11-3.21.01.05.02.32.02.44v.46Z"/>
    </g>
    <g>
      <path class="cls-4" d="M107.32,36.38c-.22.99-2.32-3.76-2.49-4.29-.36-1.05-.79-1.86-.74-2.73.07-.08.1-.03.18.03.12.11.28.34.5.72.86,1.51,2.25,4.57,2.54,6.2v.08Z"/>
      <path class="cls-4" d="M104.81,32.57c.57,2.12-.43,3.79-2.3,1.55-.92-1.1-1.77-3.24-1.91-4.65-.2-1.24.27-2.71,1.64-1.65,1.05.76,2.08,2.83,2.44,4.26l.12.5Z"/>
      <path class="cls-4" d="M100.44,31.09c.63,3.28-2.17,4.37-4.24,1.76-.7-.78-1.39-2.41-1.52-3.27-.17-1.09-.17-1.49.12-2.38.43-1.04,1.37-1.31,2.38-.91,1.45.46,2.93,2.93,3.16,4.33l.09.47Z"/>
      <path class="cls-4" d="M93.89,30.1c.35,6.09-6.56,3.93-7.22-.65-.55-2.22.94-4.63,3.36-4,1.78.31,3.53,2.57,3.79,4.22l.07.43Z"/>
      <path class="cls-4" d="M85.37,29.75c.18,6.21-7.68,4.74-8.3-.31-.53-6.12,7.35-5.17,8.24-.1l.06.4Z"/>
      <path class="cls-4" d="M75.49,29.88c.28,6.04-8.3,5.57-9.12.19-.57-6.06,8.03-5.87,9.07-.57l.06.38Z"/>
      <path class="cls-4" d="M64.45,30.48c.34,5.81-8.58,6.21-9.53.66-.62-5.89,8.34-6.4,9.48-1.03l.06.36Z"/>
      <path class="cls-4" d="M52.95,31.6c.39,5.47-8.44,6.63-9.49,1.1-.69-5.65,8.25-6.89,9.44-1.46l.05.36Z"/>
      <path class="cls-4" d="M41.49,33.07c.51,5.33-8.02,6.88-9.08,1.61-.77-5.3,7.69-7.13,9.01-1.97l.06.36Z"/>
      <path class="cls-4" d="M30.6,35.02c.57,4.64-7.02,6.98-8.18,1.95-.77-4.98,6.73-7.27,8.12-2.31l.06.36Z"/>
      <path class="cls-4" d="M20.81,37.19c.61,4.38-6.48,7.05-6.96,1.69-.15-3.9,5.55-6.49,6.89-2.06l.07.37Z"/>
      <path class="cls-4" d="M12.62,39.59c.51,3.16-4.28,6.59-5.29,2.5-.32-1.74.51-3.77,2.08-4.6,1.38-.78,2.89.1,3.15,1.72l.05.39Z"/>
      <path class="cls-4" d="M6.34,41.99c.1,1.45-.58,3.46-1.88,4.17-.91.52-1.52-.21-1.63-1.12-.15-1.18.02-2.01.43-3.05.67-1.75,2.65-2.76,3.04-.41l.04.41Z"/>
      <path class="cls-4" d="M2.32,44.58c-.07,1.22-.34,3.17-1.12,4.03-.3.21-.35-.04-.42-.31-.17-1.31.18-3.74.91-4.87.5-.56.62.38.63.75v.41Z"/>
    </g>
    <g>
      <path class="cls-4" d="M103.76,28.41c-1.08-1.35-2.78-4.12-3.83-5.8-.55-.93-.1-.48,1.44,1.84.69,1.06,2.03,3.1,2.39,3.95v.02Z"/>
      <path class="cls-4" d="M100.9,24.28c.51,1.05.67,2.36-.55,1.8-1.42-.76-2.54-2.42-3.36-3.88-.3-.69-1.08-1.99-.6-2.66,1.34-.52,3.66,3.02,4.3,4.31l.2.43Z"/>
      <path class="cls-4" d="M96.66,22.18c.47,1.45-.03,2.74-1.43,2.5-2.06-.38-3.67-2.45-4.34-4.38-.37-1.01-.4-2.72,1.05-2.68,2.03.1,3.83,2.26,4.58,4.14l.14.42Z"/>
      <path class="cls-4" d="M90.33,20.75c.57,2.84-2.17,3.87-4.61,2.27-1.25-.77-2.28-2.13-2.58-3.58-.52-2.15,1.2-3.49,3.26-2.84,1.63.37,3.44,2.24,3.83,3.75l.1.39Z"/>
      <path class="cls-4" d="M82.14,20.08c.38,5.42-7.31,3.68-8.02-.55-.62-5.62,7.1-3.8,7.94.17l.08.38Z"/>
      <path class="cls-4" d="M72.75,20.05c.36,5.35-8.19,4.56-8.96-.03-.47-5.33,7.9-4.71,8.89-.32l.07.35Z"/>
      <path class="cls-4" d="M61.97,20.6c.5,5.09-8.2,5.48-9.16.65-.63-5.16,7.96-5.52,9.09-.99l.07.34Z"/>
      <path class="cls-4" d="M50.91,21.83c.57,4.77-7.91,6.14-9.07,1.28-.74-4.94,7.73-6.19,9.01-1.61l.07.34Z"/>
      <path class="cls-4" d="M39.96,23.62c.68,4.61-7.48,6.45-8.62,1.94-.9-4.67,7.08-6.75,8.55-2.27l.07.33Z"/>
      <path class="cls-4" d="M29.53,25.99c.73,4.25-7.1,6.93-7.8,1.96-.29-3.89,6.21-6.4,7.72-2.29l.07.33Z"/>
      <path class="cls-4" d="M20.23,28.75c.32,1.84-1.23,4-3.06,4.53-1.38.5-3.02-.02-3.37-1.59-.96-3.43,4.8-7.27,6.36-3.28l.07.34Z"/>
      <path class="cls-4" d="M12.47,31.82c.26,1.73-1.25,4.08-2.84,4.54-1.02.37-1.83-.11-2.03-1.11-.38-1.85.94-4.06,2.47-4.78,1.08-.55,2.14-.08,2.35,1.01l.06.34Z"/>
      <path class="cls-4" d="M6.68,35.11c.04,1.58-.91,3.82-2.37,4.61-1.22.48-.9-1.57-.76-2.13.32-1.32,1.11-2.93,2.16-3.46.5-.25.88.18.94.66l.04.32Z"/>
      <path class="cls-4" d="M3.13,38.64c-.19,1.19-.75,3.23-1.35,4.28-.35.51,0-1.1.12-1.61.07-.45,1.22-4.69,1.26-2.98l-.03.31Z"/>
    </g>
    <g>
      <path class="cls-4" d="M95.87,17.56c2.05,2.71-1.91-.54-2.54-1.32-.34-.31-3.14-3.3-2.21-3.08,1.64.95,3.14,2.6,4.47,4.08l.27.33Z"/>
      <path class="cls-4" d="M91.88,14.92c.92,1.74-.68,1.79-1.82,1.21-1.52-.66-3.3-2.31-4.01-3.66-.41-.75-.62-1.61.36-1.67,1.85.07,4.17,2.03,5.29,3.79l.18.33Z"/>
      <path class="cls-4" d="M85.85,13.09c.19.76.02,1.37-.61,1.74-1.7,1.03-5.66-1.08-6.36-3.24-.81-2.09,1.23-2.66,3.01-2.02,1.51.48,3.22,1.67,3.86,3.19l.11.33Z"/>
      <path class="cls-4" d="M78.13,12.03c.51,4.43-6.96,2.43-7.63-.78-.29-1.03.15-2.03,1.2-2.4,2.19-.83,5.5.76,6.32,2.85l.1.33Z"/>
      <path class="cls-4" d="M69.37,11.86c.27,4.38-7.75,3.45-8.62-.16-.26-4.5,7.57-3.4,8.54-.14l.08.3Z"/>
      <path class="cls-4" d="M59.04,12.36c.53,4.12-7.65,4.57-8.67.65-.45-4.42,7.43-4.38,8.59-.95l.08.3Z"/>
      <path class="cls-4" d="M48.57,13.69c.57,4.03-7.1,5.24-8.49,1.57-.91-4.19,6.92-5.52,8.4-1.86l.08.29Z"/>
      <path class="cls-4" d="M38.22,15.8c.68,3.96-7.42,6.03-8.12,1.68.01-3.63,6.46-5.29,8.03-1.97l.09.29Z"/>
      <path class="cls-4" d="M28.52,18.59c.6,3.2-5.78,6.26-7.2,2.72-.87-3.23,5.58-6.4,7.12-3l.07.28Z"/>
      <path class="cls-4" d="M19.84,21.87c.39,1.79-1.73,3.87-3.28,4.27-1.15.39-2.33.22-2.66-.98-.43-2.11,1.89-4.11,3.61-4.49.93-.22,1.94,0,2.25.92l.07.27Z"/>
      <path class="cls-4" d="M12.76,25.61c.12,1.51-1.58,3.64-2.84,4.27-.8.45-1.61.46-1.74-.49-.12-1.67,1.34-3.41,2.51-4.23.67-.48,1.86-.84,2.04.19l.04.27Z"/>
      <path class="cls-4" d="M7.51,29.66c-.22,1.51-1.34,3.54-2.56,4.6-.63.41-.34-.7-.29-.91.36-1.28,1.11-2.63,1.96-3.65.37-.4.79-.81.89-.26v.22Z"/>
      <path class="cls-4" d="M4.4,34.07c-.33.95-.96,2.75-1.38,3.62.22-.75,1.18-3.37,1.41-3.74l-.03.11Z"/>
    </g>
    <g>
      <path class="cls-4" d="M89.2,11.57c.05.06-3.25-2.33-3.13-2.25.49.31,2.44,1.74,3.13,2.25h0Z"/>
      <path class="cls-4" d="M86.25,9.49c1.65,1.63-1.78.05-2.31-.32-1.27-.74-2.76-1.64-3.7-2.72-.34-.43.05-.42.49-.27,1.71.59,3.8,1.88,5.28,3.08l.25.22Z"/>
      <path class="cls-4" d="M80.73,7.26c.81,1.64-1.69,1.29-3.32.7-1.23-.47-2.45-1.16-3.25-2.08-.7-.79-.72-1.56.56-1.54,1.92.03,4.53,1.14,5.84,2.67l.17.25Z"/>
      <path class="cls-4" d="M73.55,5.96c.21.49.09.92-.31,1.23-1.39,1.15-6.12-.04-6.92-2.11-.3-.8.23-1.31,1.08-1.48,1.95-.37,4.78.43,6.02,2.1l.14.25Z"/>
      <path class="cls-4" d="M65.5,5.68c.32,3.11-7.08,2.33-8.05-.12-.28-.92.44-1.5,1.35-1.81,2.02-.69,5.44-.15,6.61,1.7l.1.23Z"/>
      <path class="cls-4" d="M55.8,6.19c.24,3.1-6.94,3.33-8.06.64-.46-3.27,6.98-3.22,7.98-.88l.09.24Z"/>
      <path class="cls-4" d="M46.02,7.64c.43,3.27-7.23,4.18-7.93,1.22-.07-3.01,6.65-3.79,7.84-1.46l.09.24Z"/>
      <path class="cls-4" d="M36.42,9.97c.65,2.84-5.89,4.73-7.28,2.36-1.05-2.92,5.85-4.92,7.18-2.59l.1.23Z"/>
      <path class="cls-4" d="M27.54,13.09c.49,2.33-4.77,4.91-6.35,3.26-1.58-2.36,4.97-5.71,6.26-3.48l.08.22Z"/>
      <path class="cls-4" d="M19.71,16.78c.24,1.46-2.02,3.3-3.16,3.79-.66.29-1.85.74-2.22-.12-.68-1.66,4.26-5.61,5.33-3.87l.06.2Z"/>
      <path class="cls-4" d="M13.31,21.09c-.14,1.25-1.86,3.15-2.75,3.9-.3.22-1.22,1.03-1.29.34.28-1.6,1.82-3.15,2.91-4.14.29-.23.98-.77,1.12-.28v.17Z"/>
      <path class="cls-4" d="M8.72,25.88c-.4.94-1.61,2.97-2.2,3.81-.18.21-.11.1-.09.02.57-1.11,1.7-3.14,2.29-3.88v.05Z"/>
    </g>
    <g>
      <path class="cls-3" d="M79.01,5.36c-.44-.18-2.16-.94-2.43-1.07.3.11,2.05.89,2.43,1.07h0Z"/>
      <path class="cls-3" d="M75.08,3.7c.55.32.01.35-.34.28-1.25-.15-4.82-1.24-6.19-2.03-.27-.17-.2-.14-.24-.2.15-.14.42,0,.79.03,1.7.34,4.13,1.04,5.77,1.8l.22.12Z"/>
      <path class="cls-3" d="M68.57,2.17c.56.95-1.84.82-3.31.59-1.29-.24-2.74-.61-3.59-1.38-.45-.54.26-.58.82-.63,1.76-.07,4.39.26,5.93,1.28l.15.14Z"/>
      <path class="cls-3" d="M61.84,1.42c.22.24-.15.18-.15.07-.01-.25.49-.12.59.07.54,1.84-5.74,1.35-7.14.58-.45-.2-.64-.44-.36-.76.63-.67,2.36-.82,3.48-.78,4.86.72,1.97.32,2.94.48.18.07.35.14.5.23l.15.11Z"/>
      <path class="cls-3" d="M52.38,2.31c-.01,1.96-6.63,2.05-7.54.73-.59-1.86,6.79-2.19,7.46-.88l.08.16Z"/>
      <path class="cls-3" d="M43.54,3.81c.41,1.86-6.47,3.05-7.37,1.58-.31-.98,1.26-1.42,2.07-1.73,1.63-.44,3.9-.99,5.2,0l.1.15Z"/>
      <path class="cls-3" d="M34.78,6.37c.32,1.69-5.76,3.62-6.65,2.36-.74-1.59,5.87-3.76,6.58-2.51l.07.14Z"/>
      <path class="cls-3" d="M26.77,9.65c.08,1.52-3.41,3.04-4.54,3.38-1.42.43-1.9-.28-.6-1.41,1-.88,2.68-1.82,3.91-2.16.48-.13.93-.16,1.16.07l.07.12Z"/>
      <path class="cls-3" d="M19.8,13.76c-.49,1.17-2.4,2.67-3.53,3.54-.3.18-1.07.81-1.25.49.6-1.49,3.43-3.6,4.33-4.1.12-.06.41-.17.45-.03v.1Z"/>
      <path class="cls-3" d="M14.25,18.49c-.88,1.15-2.59,3.32-3.48,4.31.78-1.08,2.75-3.62,3.5-4.35l-.02.05Z"/>
    </g>
    <g>
      <path class="cls-4" d="M63.47.67c-1.53-.12-4.36-.38-5.82-.53.37-.02,4.95.37,5.82.52h0Z"/>
      <path class="cls-4" d="M57.06.19c.86.29-5.52.29-6.37.24-2.95-.15,5.7-.42,6.28-.25h.09Z"/>
      <path class="cls-4" d="M49.07.63c.47.51-5.28,1.24-6.28,1.23-3.17-.04,5.78-1.54,6.22-1.25h.06Z"/>
      <path class="cls-4" d="M41.01,2.23c.11.37-1.28.77-1.7.96-1.59.54-2.74.91-4.23,1.14-2.86.27,5.41-2.47,5.89-2.11l.04.02Z"/>
      <path class="cls-4" d="M33.41,4.8c0,.26-1.08.78-1.56,1.06-1.2.62-2.57,1.33-3.83,1.78-2.44.72,4.84-2.94,5.32-2.85h.07Z"/>
      <path class="cls-4" d="M26.18,8.46c-.49.45-1.92,1.4-2.66,1.94-1.06.75-1.04.74-1.86,1.29-.39.26-.5.32-.33.18,1.01-.76,3.71-2.84,4.85-3.42h0Z"/>
    </g>
  </g>
</svg>