<?xml version="1.0" encoding="UTF-8"?>
<svg id="Layer_2" xmlns="http://www.w3.org/2000/svg" viewBox="0 0 110.9 110.88">
  <defs>
    <style>
      .cls-1 {
        fill: #21409a;
        stroke: #fff;
        stroke-miterlimit: 10;
        stroke-width: .25px;
      }
    </style>
  </defs>
  <g id="Layer_1-2" data-name="Layer_1">
    <g>
      <path class="cls-1" d="M55.34,110.75c-.23,0-.37,0-.41,0,1.97-.19,6.05-.44,7.84-.49-1.95.28-5.34.41-7.3.48h-.13Z"/>
      <path class="cls-1" d="M45.82,109.94c2.03-.14,5.78.29,8.37.53,3.95.66-8.1-.22-8.36-.52h0Z"/>
      <path class="cls-1" d="M37.38,107.66c1.61.15,4.9,1.16,6.57,1.67,2.65,1.09-6.41-1.38-6.57-1.66h0Z"/>
      <path class="cls-1" d="M30.53,104.79c1.3.54,3.26,1.44,4.44,1.98.74.41-4.04-1.72-4.43-1.97h0Z"/>
    </g>
    <g>
      <path class="cls-1" d="M76.31,106.64c1.56-1.07,4.77-2.61,6.6-3.48.39-.16.85-.4,1.11-.4-.88.86-2.16,1.29-3.96,2.26-1.13.54-3.02,1.49-3.73,1.63h0Z"/>
      <path class="cls-1" d="M76.7,106.29c-1.51,1.29-5.27,2.49-7.31,2.62-.62.06-1.25-.02-.85-.54,1.11-1.15,2.53-1.69,4.13-2.29.9-.36,5.15-1.45,4.19.05l-.16.17Z"/>
      <path class="cls-1" d="M68.06,108.17c-1.32,1.44-4.92,2.1-6.88,1.8-.95-.12-1.52-.62-.91-1.33,1.47-1.66,6.19-2.57,7.77-1.49.3.19.29.66.15.82l-.13.19Z"/>
      <path class="cls-1" d="M58.36,108.72c-1.46,1.73-5.81,1.45-7.98,1.06-1.09-.25-2.57-.67-1.93-1.67,1.36-1.78,9.67-1.9,9.96.45l-.05.16Z"/>
      <path class="cls-1" d="M46.55,107.84c-1.03,1.69-8.48.76-8.72-1.39.68-2.13,8.86-1.08,8.78,1.22l-.06.17Z"/>
      <path class="cls-1" d="M36.09,105.64c-.94,1.36-7.73-.91-7.73-2.56.68-1.69,7.97.69,7.78,2.42l-.05.14Z"/>
      <path class="cls-1" d="M26.91,102.31c-.3.7-6.88-3.63-6.25-4.15.85-.04,2.2.85,2.77,1.15,1.24.83,2.91,1.7,3.49,2.9v.1Z"/>
      <path class="cls-1" d="M15.76,93.94c.76.7,1.74,1.64,2.42,2.29.27.3-2.19-2.02-2.41-2.27v-.02Z"/>
    </g>
    <g>
      <path class="cls-1" d="M89.16,99.27c-.11-.08.61-.82.58-.8,1.49-1.6,3.66-3.57,5.2-4.83,4.13-3.03-5.18,5.74-5.75,5.63h-.02Z"/>
      <path class="cls-1" d="M90.31,97.83c-1.21,1.95-4.24,4.31-6.57,4.54-.8.1-1.02-.43-.77-1.08.68-1.62,1.9-2.79,3.32-3.85,1.15-.99,5.54-2.8,4.19.08l-.17.3Z"/>
      <path class="cls-1" d="M82.66,100.62c-.95,2.33-4.9,4.4-7.4,3.88-.93-.15-1.47-.81-1.32-1.7.44-1.91,2.12-3.18,3.9-4,2.55-1.06,5.32-.97,4.92,1.51l-.1.3Z"/>
      <path class="cls-1" d="M72.61,102.36c-.79,2.5-4.88,4.09-7.31,3.19-1.21-.33-1.82-1.63-1.4-2.66.93-3.35,8.9-5.28,8.78-.83l-.07.3Z"/>
      <path class="cls-1" d="M61.32,103.08c-1.02,3.52-10.16,4.22-10.6-.04.7-4.23,10.52-4.5,10.65-.22l-.05.26Z"/>
      <path class="cls-1" d="M48.59,102.61c-1.24,3.55-10.42,2.76-9.82-1.56,1.54-3.69,9.99-2.68,9.88,1.3l-.06.27Z"/>
      <path class="cls-1" d="M36.71,101.06c-1.5,3.21-8.93,1.05-8.82-2.36.94-3.78,9.31-1.51,8.89,2.1l-.07.26Z"/>
      <path class="cls-1" d="M26.15,98.4c-1.27,2.72-8.19-1.49-7.12-3.9.6-.95,1.66-.76,2.76-.54,1.96.49,4.5,2.11,4.42,4.2l-.05.24Z"/>
      <path class="cls-1" d="M17.84,94.65c-.11.74-1.11.01-1.49-.22-1.49-1.09-3.22-2.63-3.86-4.26-.24-.83.66-.47,1.05-.25,1.77,1.09,3.62,2.62,4.29,4.55v.18Z"/>
      <path class="cls-1" d="M8.98,85.38c.37.52.64.92.83,1.21.03.05-.62-.89-.8-1.17l-.02-.04Z"/>
    </g>
    <g>
      <path class="cls-1" d="M99.94,88.44c1.09-1.98,2.55-4.12,3.76-6.02.74-1.13.66-.72-.96,1.85-.76,1.18-2.06,3.3-2.8,4.17h0Z"/>
      <path class="cls-1" d="M101.17,86.45c-.94,1.97-2.62,4.86-4.71,5.62-.31.04-.29.04-.48-.08-.45-.68.09-1.75.33-2.48.64-1.87,3.2-5.55,4.63-5.7,1.33-.31.62,1.73.41,2.21l-.18.43Z"/>
      <path class="cls-1" d="M95.98,89.4c-.5,2.44-5.16,7.26-7.38,4.4-.36-.61-.23-1.83-.06-2.37.49-1.72,1.65-3.33,3.12-4.36,3-2.1,4.97-.67,4.42,1.92l-.1.41Z"/>
      <path class="cls-1" d="M87.4,91.58c-.48,4.25-8.96,8.04-9.27,2,.07-5.02,9.25-8.71,9.32-2.37l-.05.37Z"/>
      <path class="cls-1" d="M76.44,93.18c-.61,4.9-9.71,7.02-10.11,1.12,0-5.63,10.23-7.86,10.16-1.48l-.04.36Z"/>
      <path class="cls-1" d="M63.84,94.03c-.88,5.18-11.15,5.88-11.29.06.45-5.83,11.38-6.35,11.33-.39l-.04.33Z"/>
      <path class="cls-1" d="M50.24,93.96c-1.16,5.06-10.77,4.43-10.87-.86.49-5.83,11.26-5,10.92.53l-.05.33Z"/>
      <path class="cls-1" d="M37.19,92.97c-1.29,4.86-9.81,2.94-9.83-1.75.6-5.43,10.1-3.51,9.87,1.42l-.04.32Z"/>
      <path class="cls-1" d="M25.5,91.19c-1.3,4.48-8.2.92-8.07-2.7.03-1.4.97-2.25,2.34-2.4,2.6-.32,5.83,2.15,5.76,4.77l-.03.33Z"/>
      <path class="cls-1" d="M16.12,88.65c-.11,1.12-1.1,1.46-2.03,1.16-1.9-.67-3.54-2.56-3.82-4.55-.16-1.1.43-2.01,1.69-1.74,2.05.36,4.12,2.82,4.18,4.8l-.02.33Z"/>
      <path class="cls-1" d="M9.71,85.24c.18,1.08-.65.29-.94-.07-.89-1.02-2.84-4.27-2.65-5.19.04-.05.1-.05.19,0,.19.11-.1-.08.24.16,1.31,1.15,2.53,3.14,3.09,4.83l.07.28Z"/>
    </g>
    <g>
      <path class="cls-1" d="M105.1,79.71c-.24-.02.24-2,.47-2.63.67-2.05,1.51-4.52,2.48-6.17,1.94-2.16-2.56,9.62-2.92,8.82h-.02Z"/>
      <path class="cls-1" d="M105.66,76.29c-.46,2.01-1.88,6.03-4.25,5.84-1.37-.59-.92-2.95-.75-4.05.34-1.8,1.41-4.37,2.74-5.33,2.48-1.82,2.71,1.52,2.35,3.03l-.1.52Z"/>
      <path class="cls-1" d="M99.86,78.27c-.17,1.34-.76,2.82-1.6,3.9-2.88,3.72-6.52,2.02-6.15-1.83.09-2.28,1.41-5.02,3.35-6.08,2.87-1.72,4.79.95,4.44,3.54l-.05.47Z"/>
      <path class="cls-1" d="M90.71,80c-.46,5.76-9.26,8.88-9.67,1.46-.03-6.4,9.41-9.72,9.7-1.88l-.03.42Z"/>
      <path class="cls-1" d="M79.01,81.25c-.49,6.31-10.5,8.2-11.02.94-.07-6.88,10.76-9.02,11.04-1.34l-.02.39Z"/>
      <path class="cls-1" d="M65.57,82.1c-.58,6.55-11.62,7.38-11.9.28.11-6.96,11.59-7.98,11.91-.65l-.02.37Z"/>
      <path class="cls-1" d="M51.29,82.41c-.72,6.48-11.42,6.17-11.63-.34.16-6.92,11.47-6.89,11.65-.02l-.02.36Z"/>
      <path class="cls-1" d="M37.39,82.16c-.85,6.17-10.45,4.84-10.58-1.02.25-6.63,10.57-5.52,10.6.65l-.02.37Z"/>
      <path class="cls-1" d="M24.83,81.34c-.98,5.66-8.53,3.25-8.72-1.55.08-6.31,8.83-4.13,8.74,1.17l-.02.38Z"/>
      <path class="cls-1" d="M14.59,79.97c-.85,4.87-6.14,1.27-6.31-2.05-.37-2.25,1.34-4.04,3.63-2.78,1.49.7,2.77,2.89,2.7,4.44l-.02.4Z"/>
      <path class="cls-1" d="M7.49,78.11c-.06,2.75-2.19.81-2.78-.57-.56-1.05-.94-2.4-.96-3.45-.03-.74.21-1.49,1.02-1.13,1.55.75,2.5,3,2.7,4.75l.02.41Z"/>
      <path class="cls-1" d="M3.86,75.24c.05.16.07.26.08.31-.1,0-1.12-2.93-1.12-3.22.33.73.63,1.68.91,2.5l.13.41Z"/>
    </g>
    <g>
      <path class="cls-1" d="M110.33,63.5c-.42,5.09-2.24,7.74-1.84,1.32.19-1.92.37-4.39,1.24-5.97,1.1-1.36.72,3.4.66,4.02l-.06.63Z"/>
      <path class="cls-1" d="M108.04,64.39c-.1,1.4-.46,2.85-.92,3.86-2.57,4.77-4.39.01-4.11-2.59.04-1.98.65-5,2.23-6.08,2.44-1.43,2.97,2.83,2.83,4.26l-.03.55Z"/>
      <path class="cls-1" d="M101.89,65.39c-.09,2.35-1.22,5.03-3.28,5.95-3.3,1.36-4.94-3.22-4.47-5.81.55-6.42,7.49-8,7.76-.63v.49Z"/>
      <path class="cls-1" d="M92.39,66.43c-.28,7.3-9.56,8.8-10.01.95-.23-7.42,9.4-9.67,10.02-1.39v.43Z"/>
      <path class="cls-1" d="M80.22,67.4c-.44,8.01-11.83,8.4-11.49-.06.64-7.28,11.03-8.06,11.49-.34v.41Z"/>
      <path class="cls-1" d="M66.25,68.23c-.33,8.02-12.64,8.06-12.26-.24.71-7.31,11.7-7.63,12.25-.14v.38Z"/>
      <path class="cls-1" d="M51.51,68.9c-.33,7.38-11.55,7.64-12.07.24-.06-7.7,11.46-8.08,12.06-.62v.38Z"/>
      <path class="cls-1" d="M37.12,69.35c-.34,6.92-10.44,6.69-11.01-.06-.23-7.33,10.48-7.36,11-.33v.39Z"/>
      <path class="cls-1" d="M24.08,69.49c-.5,6.63-8.81,5.33-9.11-.45-.15-6.74,8.66-6.18,9.1.04v.41Z"/>
      <path class="cls-1" d="M13.36,69.34c-.44,5.96-6.39,4-6.63-.89-.1-6.26,6.4-4.56,6.62.44v.45Z"/>
      <path class="cls-1" d="M5.85,68.9c.17,2.72-1.7,3.91-3.04,1.33-.56-1.01-.85-2.76-.79-3.71-.06-1.37.83-3.07,2.24-1.85.93.76,1.45,2.44,1.56,3.71l.03.51Z"/>
      <path class="cls-1" d="M1.99,68.23c.03.24.05.43.07.59.07,1.11-.23.77-.72-1.7-.11-.53-.22-1.13-.3-1.65-.05-.38-.39-2.2-.12-1.77.18.06.96,3.42,1,4.01l.08.52Z"/>
    </g>
    <g>
      <path class="cls-1" d="M110.63,51.41s-.15-1.96-.17-2.06c.05.62.12,1.5.17,2.08v-.02Z"/>
      <path class="cls-1" d="M110.77,51.88c.15,8.52-1.87,3.7-1.88-.45-.35-5.89,1.39-6.96,1.84-.18l.03.64Z"/>
      <path class="cls-1" d="M108.32,51.72c.21,2.43-1.22,7.21-3.83,4.26-1.08-1.48-1.4-3.93-1.31-5.82.66-7.32,5.01-4.19,5.11,1l.02.57Z"/>
      <path class="cls-1" d="M102,51.69c-.01,7.99-7.53,7.46-7.92.15-.39-7.68,7.19-8.29,7.9-.64l.03.5Z"/>
      <path class="cls-1" d="M92.34,52c0,8.16-9.64,8.14-10.19.4-.38-8.01,9.26-8.8,10.16-.84l.03.44Z"/>
      <path class="cls-1" d="M79.95,52.65c-.09,8.11-10.94,8.39-11.69.58-.4-8.3,10.81-9.01,11.67-.99l.02.41Z"/>
      <path class="cls-1" d="M65.8,53.46c.08,7.92-11.53,8.66-12.38.74-.42-8.17,11.43-9,12.36-1.13l.03.39Z"/>
      <path class="cls-1" d="M50.92,54.46c.08,7.66-11.35,8.46-12.18.81-.41-7.86,11.2-8.8,12.15-1.2l.03.39Z"/>
      <path class="cls-1" d="M36.34,55.51c.16,7.2-10.26,8.14-11.07.87-.46-7.19,9.96-8.46,11.03-1.26l.03.4Z"/>
      <path class="cls-1" d="M23.2,56.6c.11,6.97-9.05,7.32-9.23.28.08-6.24,8.32-7.02,9.19-.69l.03.42Z"/>
      <path class="cls-1" d="M12.41,57.67c.2,5.56-5.92,6.83-6.63.89-.48-5.85,5.69-7.33,6.59-1.35l.04.46Z"/>
      <path class="cls-1" d="M4.74,58.66c.21,4.54-3.06,5.84-3.62.8-.55-4.53,2.77-6.92,3.59-1.33l.04.53Z"/>
      <path class="cls-1" d="M.82,59.45c.1.71.04,4.4-.34,2.63-.09-.17-.7-6.68-.07-5.58.17.31.36,2.15.36,2.34l.04.6Z"/>
    </g>
    <g>
      <path class="cls-1" d="M109.33,42.44c.17.97.23,2.75-.67,1.65-.73-.93-1.54-3.55-1.88-5.04-.12-.61-.99-4.08-.12-4.22.43.23.54.61.82,1.13.69,1.41,1.57,4.56,1.82,6.25l.04.24Z"/>
      <path class="cls-1" d="M106.5,39.37c.24,1.84.02,4.78-2.07,4.24-1.97-.88-2.84-3.52-3.26-5.59-.47-1.92-.1-6.2,2.63-4.42,1.32.87,2.4,3.77,2.61,5.24l.08.54Z"/>
      <path class="cls-1" d="M100.21,38.23c.3,2.48-.75,5.43-3.46,5.16-2.74-.35-4.74-4.01-4.73-6.77.26-7.43,7.39-4.56,8.12,1.14l.06.47Z"/>
      <path class="cls-1" d="M90.51,37.82c.23,8.23-9.53,6.69-10.2-.15-.57-8.02,9.1-7.32,10.15-.27l.05.43Z"/>
      <path class="cls-1" d="M78.25,38.07c.3,8.02-10.66,7.76-11.61.4-.64-7.96,10.39-8.1,11.56-.8l.05.4Z"/>
      <path class="cls-1" d="M64.25,38.86c.41,7.6-10.92,8.44-12.2,1.12-.93-7.9,10.84-8.94,12.15-1.5l.05.38Z"/>
      <path class="cls-1" d="M49.53,40.17c.46,7.34-10.81,8.73-11.97,1.44-.7-7.43,10.55-8.96,11.92-1.81l.05.38Z"/>
      <path class="cls-1" d="M35.18,41.92c.6,6.64-9.56,8.81-10.82,1.85-.81-6.71,9.28-9.04,10.77-2.23l.05.38Z"/>
      <path class="cls-1" d="M22.3,44.04c.58,5.64-7.73,8.38-8.92,2.05-.76-5.88,7.43-8.68,8.86-2.44l.05.39Z"/>
      <path class="cls-1" d="M11.73,46.17c.2,1.78-.7,3.99-2.21,4.9-2.7,1.63-4.45-1.4-4.14-3.76.27-4.27,5.18-6.52,6.3-1.57l.06.43Z"/>
      <path class="cls-1" d="M4.35,48.46c.06,1.63-.29,4.03-1.71,4.89-1.16.56-1.6-1.17-1.67-2.09-.13-1.77.2-4.19,1.5-5.19,1.2-.81,1.82,1.16,1.84,1.91l.04.48Z"/>
      <path class="cls-1" d="M.69,50.68c0,1.01-.25,3.87-.44,4.3-.2.55-.12-1.37-.11-1.74,0-1.37.45-6.42.55-3.08v.52Z"/>
    </g>
    <g>
      <path class="cls-1" d="M106.05,33.27c-1.05-1.04-1.55-2.22-2.47-3.76-.75-1.4-1.67-3.07-2.14-4.47-.14-1.67,5.35,8.49,4.63,8.24h-.02Z"/>
      <path class="cls-1" d="M102.63,28.1c.64,2.05.13,4.01-1.98,2.74-1.81-1.15-3.14-3.58-3.75-5.7-.29-1.2-.64-3.13.89-3.14,2.23.37,4.04,3.69,4.69,5.62l.14.48Z"/>
      <path class="cls-1" d="M96.48,25.99c.47,2.16-.54,4.24-2.82,4-2.5-.18-5.08-3.2-5.45-5.81-.55-2.5,1.04-4.67,3.69-3.73,2.04.63,3.95,2.94,4.48,5.11l.1.44Z"/>
      <path class="cls-1" d="M87.04,24.89c.47,7.73-9.64,4.93-10-1.1-.12-6.94,8.9-4.57,9.92.7l.08.4Z"/>
      <path class="cls-1" d="M75.29,24.81c.54,7.23-10.35,6.44-11.32.12-.67-7.16,10.04-6.57,11.25-.49l.07.37Z"/>
      <path class="cls-1" d="M61.66,25.54c.69,6.75-10.27,7.67-11.73,1.21-1.06-7.03,10.15-7.91,11.66-1.57l.07.36Z"/>
      <path class="cls-1" d="M47.51,27.13c.77,6.55-10.21,8.26-11.44,1.89-.91-6.4,9.75-8.45,11.37-2.23l.07.35Z"/>
      <path class="cls-1" d="M33.74,29.51c.95,6.21-9.69,8.81-10.33,1.94-.1-5.5,8.55-7.81,10.25-2.28l.08.35Z"/>
      <path class="cls-1" d="M21.39,32.47c.99,4.68-6.71,8.94-8.33,3.31-1.02-4.75,6.34-9.02,8.25-3.67l.08.36Z"/>
      <path class="cls-1" d="M11.51,35.86c.3,2.02-1.03,4.77-2.99,5.57-1.92.85-2.94-.66-2.96-2.31-.03-2.08,1.09-4.39,3.03-5.26,1.34-.61,2.62.22,2.86,1.64l.06.37Z"/>
      <path class="cls-1" d="M4.65,39.5c.03,1.58-.65,4.05-1.8,5.21-.77.79-1.17.2-1.23-.65-.13-1.8.53-4.12,1.52-5.42.74-.95,1.41-.6,1.49.48l.02.37Z"/>
      <path class="cls-1" d="M1.38,44.09c-.63,3.09.14-1.1.3-1.54.02-.06-.23,1.19-.18.94l-.12.6Z"/>
    </g>
    <g>
      <path class="cls-1" d="M100.07,22.59c-1.15-1.4-3.29-3.93-4.5-5.3.79.81,3.59,4.13,4.5,5.3h0Z"/>
      <path class="cls-1" d="M96.95,18.85c.56.88,1.03,2.04-.15,1.75-1.73-.41-4.8-3.67-5.85-5.61-.29-.57-.94-1.66-.13-1.7,2.3.63,4.43,3.19,5.9,5.2l.23.36Z"/>
      <path class="cls-1" d="M91.09,15.9c.92,3-2.04,3.25-4.64,1.6-1.65-1.05-3.2-2.67-3.65-4.61-.45-2.12,1.76-2.45,3.49-1.68,1.81.66,3.95,2.61,4.66,4.33l.14.36Z"/>
      <path class="cls-1" d="M82.24,14.19c.71,5.9-8.89,3.23-9.57-1.2-.67-5.63,8.33-3.19,9.47.85l.1.35Z"/>
      <path class="cls-1" d="M71.24,13.76c.62,5.99-9.92,4.68-10.78-.1-.39-5.81,9.36-4.66,10.69-.22l.09.32Z"/>
      <path class="cls-1" d="M58.29,14.42c.93,5.51-9.68,6.35-10.98,1.11-.67-5.66,9.27-6.14,10.9-1.42l.09.31Z"/>
      <path class="cls-1" d="M44.98,16.29c.96,5.24-9.09,7.39-10.61,2.22-.81-5.24,8.65-7.26,10.52-2.52l.09.31Z"/>
      <path class="cls-1" d="M32.15,19.25c.96,4.63-7.82,8.01-9.47,3.23-1-4.64,7.34-8.08,9.38-3.54l.09.31Z"/>
      <path class="cls-1" d="M20.69,23c.6,2.34-1.78,5.09-4.12,5.65-1.26.39-2.93.14-3.4-1.25-.71-2.35,1.44-4.95,3.64-5.78,1.36-.57,3.27-.45,3.79,1.09l.09.29Z"/>
      <path class="cls-1" d="M11.75,27.47c.26,2.04-1.54,4.69-3.46,5.59-.9.47-1.76.31-1.89-.72-.23-2.11,1.42-4.47,3-5.5.82-.55,2.03-.74,2.29.36l.06.28Z"/>
      <path class="cls-1" d="M5.76,32.34c-.24,1.65-1.43,4.32-2.39,5.68-.22.25-.21.29-.36.29-.5-.22,2.34-7.57,2.75-6.17v.2Z"/>
    </g>
    <g>
      <path class="cls-1" d="M90.65,12.69c-1.52-.78-4.05-2.7-5.66-3.82-.34-.26-.82-.57-.97-.79,1.59.81,5.18,3.31,6.63,4.59v.02Z"/>
      <path class="cls-1" d="M84.44,8.57c.95,1.05.17,1.39-.71,1.25-2.52-.39-5.38-1.97-7.08-3.88-.29-.41-.63-.78-.27-1.11.2-.12.55-.1.8-.08,2.27.28,5.44,1.97,7.04,3.57l.22.24Z"/>
      <path class="cls-1" d="M76.33,6.46c.24.62.04,1.13-.49,1.46-1.47,1.09-5.83-.06-7.35-1.48-1.38-1.01-1.94-2.82.25-3.13,2.35-.36,6.15.85,7.47,2.9l.12.25Z"/>
      <path class="cls-1" d="M66.4,5.76c.73,4.09-9.22,2.77-10.15-.16-.32-1.16.55-1.77,1.65-2.19,2.55-.83,6.78-.34,8.39,2.1l.11.24Z"/>
      <path class="cls-1" d="M54.39,6.44c.41,4.07-8.89,4.42-10.06,1.04-.41-3.94,8.56-4.3,9.97-1.28l.09.24Z"/>
      <path class="cls-1" d="M42.17,8.54c.71,4.03-8.61,5.75-9.61,2.09-.23-3.63,7.87-5.28,9.51-2.33l.1.24Z"/>
      <path class="cls-1" d="M30.57,11.91c.89,3.15-6.59,6.55-8.39,3.67-1.22-3.06,6.36-6.71,8.29-3.9l.1.23Z"/>
      <path class="cls-1" d="M20.43,16.36c.36,1.96-2.24,4.06-4.02,4.85-.98.39-1.92.74-2.58-.06-1.27-2.02,5.13-7.21,6.53-5l.07.2Z"/>
      <path class="cls-1" d="M12.57,21.9c-.13,1.45-2.27,3.77-3.43,4.95-.43.39-.65.57-.95.71-1.37.32,3.71-7.77,4.35-5.78l.03.12Z"/>
    </g>
    <g>
      <path class="cls-1" d="M77.39,4.6c-1.59-.5-5.59-1.9-7.11-2.47,1.1.23,5.82,1.87,7.1,2.46h.01Z"/>
      <path class="cls-1" d="M69.79,2.11c.97.76-1.6.52-2.29.43-1.93-.28-4.51-.75-6.12-1.65-.65-.45.37-.41.9-.4,2.11.1,5.39.66,7.32,1.52l.19.11Z"/>
      <path class="cls-1" d="M59.68.56c.93.17,1.52.35,2.31.76.15.11.19.24.19.28,0,.19-.37.22-.47.2-1.81.28-3.94.8-5.78.41-.95-.09-3.58-.68-3.41-1.35,1.18-1,5.22-.61,6.78-.37l.37.07Z"/>
      <path class="cls-1" d="M50.44,1.94c.25,2.04-8.16,2.64-9.33,1.27-.47-.73.86-1.13,1.75-1.42,2.14-.53,5.61-1.19,7.49.02l.09.13Z"/>
      <path class="cls-1" d="M39.54,4.2c.59,1.98-7.26,3.8-8.44,2.64-.88-.89,1.39-1.76,2.17-2.08,1.29-.5,3.1-.97,4.32-1.03.82-.03,1.4-.02,1.86.35l.09.12Z"/>
      <path class="cls-1" d="M29.35,7.84c.03,1.59-5.82,4.68-7.25,4.17-1.36-1.01,6.44-5.4,7.2-4.28l.05.11Z"/>
      <path class="cls-1" d="M20.59,12.82c-.43,1-2.37,2.61-3.42,3.54-.55.46-.56.45-1.05.84-.35.24-.97.76-1.29.75.53-1.18,3.94-4.02,4.91-4.81.24-.14.63-.54.86-.4v.08Z"/>
      <path class="cls-1" d="M13.36,19.5c-.4.52-2.17,2.78-2.59,3.33-.16.21-.1.12-.08.1.6-.82,1.95-2.58,2.67-3.43h0Z"/>
    </g>
    <g>
      <path class="cls-1" d="M54.35.13c-.86.06-3.57.21-4.14.23,1.09-.08,3.09-.19,4.14-.24h0Z"/>
      <path class="cls-1" d="M46.24.88c-1.71.47-4.91,1.18-6.65,1.57-.33.06-.12-.02.88-.29,1.49-.37,4.38-1.13,5.77-1.29h0Z"/>
      <path class="cls-1" d="M36.33,3.52c-1.72.8-3.98,1.75-5.66,2.45.61-.37,4.66-2.18,5.65-2.45h0Z"/>
    </g>
  </g>
</svg>